# Blender 4.0.2
# www.blender.org
mtllib idx-F2-hull.mtl
o idx-F2-hull
v -0.012992 0.002568 -0.006262
v -0.016852 -0.004942 -0.001299
v -0.013022 0.002488 0.006255
v 0.002415 0.000995 0.005250
v -0.008975 0.004108 0.006972
v 0.022698 -0.013505 0.005657
v 0.000903 0.003402 -0.002753
v -0.009240 0.004606 -0.006567
v -0.007934 0.004467 0.005239
v 0.000924 0.002378 0.004819
v -0.011413 0.003315 0.007031
v -0.010721 0.004306 0.006051
v -0.009404 0.004592 0.005252
v -0.011999 0.003601 0.005978
v -0.010764 0.004284 -0.006393
v -0.011534 0.003280 -0.007295
v -0.000027 0.003497 0.002208
v 0.001800 0.003056 0.002148
v 0.002894 0.002349 -0.002442
v -0.013560 0.001120 -0.006437
v -0.013718 -0.003258 -0.006378
v -0.015591 -0.004409 -0.004437
v -0.013900 -0.005562 -0.005178
v -0.012088 0.003525 -0.005480
v -0.016368 -0.004292 0.001772
v 0.019985 -0.013810 0.006343
v 0.018588 -0.015406 0.006615
v -0.010488 -0.002392 0.007103
v 0.002894 0.002272 0.002640
v 0.023663 -0.011846 0.003333
v 0.025555 -0.012726 0.001550
v 0.025566 -0.014033 0.003777
v 0.022834 -0.012569 0.005001
v -0.012662 -0.001406 -0.007008
v -0.010337 -0.004240 -0.006981
v -0.010037 -0.000578 -0.007384
v 0.008897 -0.013909 -0.006845
v 0.010153 -0.011325 -0.006924
v 0.020971 -0.017629 -0.006289
v 0.008844 -0.015972 -0.006271
v -0.008881 0.001983 -0.007249
v 0.020447 -0.019419 -0.005568
v 0.021421 -0.015616 -0.006267
v 0.021177 -0.013644 -0.005921
v 0.024446 -0.014705 -0.005099
v 0.024321 -0.020266 -0.004169
v 0.024841 -0.021291 -0.001662
v 0.022346 -0.021261 -0.003788
v 0.003531 -0.016522 0.003628
v -0.009452 -0.008633 0.004908
v -0.009887 -0.009837 0.002501
v 0.001877 -0.016254 0.001519
v -0.015063 -0.006713 0.002135
v -0.015514 -0.006831 -0.000779
v -0.015258 -0.006400 -0.003295
v -0.009650 -0.009179 -0.004171
v -0.010178 -0.009537 -0.002692
v 0.022429 -0.010443 0.000144
v 0.024915 -0.012271 -0.001774
v 0.001771 0.002495 -0.004342
v 0.021737 -0.012244 -0.005139
v 0.002126 0.000930 -0.005462
v -0.009480 -0.006412 -0.006484
v -0.012953 -0.000922 0.006738
v -0.013929 -0.005657 0.004599
v -0.013823 -0.003775 0.005894
v -0.015612 -0.004875 0.003736
v -0.008429 -0.007566 0.006177
v -0.014862 -0.002748 0.004948
v -0.016528 -0.005281 0.001815
v 0.022036 -0.016044 0.006325
v 0.003961 -0.013489 0.006347
v 0.006382 -0.013103 0.006696
v -0.007316 -0.006643 0.006809
v -0.005318 -0.006020 0.007020
v -0.011555 -0.003703 0.006751
v 0.021284 -0.017950 0.006300
v 0.021454 -0.020756 0.004346
v 0.020741 -0.019368 0.005618
v 0.006792 -0.016469 0.005476
v 0.025305 -0.019585 0.003812
v 0.026774 -0.019372 0.001109
v 0.025997 -0.017152 0.003980
v 0.026843 -0.016329 0.002173
v 0.027094 -0.017358 -0.001401
v 0.026062 -0.019789 -0.002444
v 0.024831 -0.021300 0.001750
v 0.023809 -0.021029 0.003601
v 0.005038 -0.017738 0.000751
v 0.008068 -0.018441 0.002450
v -0.009491 -0.010353 -0.000141
v 0.023022 -0.021895 -0.000485
v 0.020626 -0.021467 -0.002168
v 0.007875 -0.018053 -0.003703
v 0.020926 -0.021702 0.000565
v 0.024635 -0.015631 0.005175
v 0.026385 -0.014254 -0.001030
v 0.026112 -0.014426 -0.003244
v 0.006612 -0.014765 -0.006460
v -0.008285 0.003816 -0.006891
v 0.009505 -0.017620 -0.005072
v 0.005359 -0.016334 -0.005110
v 0.018067 -0.014064 -0.006449
v 0.023267 -0.016951 -0.005873
v 0.023048 -0.019096 -0.005513
v 0.003016 -0.016363 -0.003426
v 0.005231 -0.017699 -0.001728
v 0.003163 -0.015567 0.004750
v 0.008453 -0.017941 0.004076
v 0.001002 0.001164 -0.005803
v 0.023496 -0.012110 -0.003928
v -0.009017 -0.008066 -0.005665
v 0.002971 -0.014406 0.005616
v -0.010396 -0.005262 0.006517
v 0.008303 -0.015332 0.006250
v 0.023015 -0.018887 0.005722
v 0.021725 -0.021694 0.002257
v 0.025959 -0.017905 -0.003992
v 0.001538 -0.016125 -0.000815
v 0.008460 -0.018791 -0.000153
v 0.005145 -0.015171 -0.005921
v 0.015460 -0.010864 -0.006235
v 0.000799 -0.013936 -0.005080
v -0.004765 -0.012615 -0.001893
v 0.008977 -0.018735 -0.002019
vn -0.8892 0.4576 0.0007
vn 0.2333 0.3519 0.9065
vn 0.1185 0.9930 -0.0014
vn 0.2315 0.9156 0.3287
vn 0.2678 0.5372 0.7998
vn -0.2330 0.7612 0.6052
vn 0.0846 0.9964 0.0024
vn -0.0387 0.9594 0.2795
vn 0.0841 0.9645 0.2503
vn -0.7357 0.6773 0.0025
vn -0.4496 0.7670 0.4579
vn -0.5741 0.6516 0.4958
vn -0.2074 0.9783 -0.0017
vn -0.2129 0.9771 -0.0010
vn -0.4832 0.8755 0.0001
vn -0.5897 0.7411 -0.3209
vn -0.2288 0.7419 -0.6303
vn 0.1233 0.9924 0.0040
vn 0.2356 0.9715 0.0254
vn 0.2329 0.9217 0.3101
vn 0.2321 0.9218 0.3104
vn 0.4703 0.8822 -0.0238
vn -0.7245 0.0169 -0.6891
vn -0.9179 0.2171 -0.3320
vn -0.9154 0.3766 -0.1422
vn -0.6485 0.3370 -0.6826
vn -0.5643 -0.3457 -0.7497
vn -0.6014 0.7625 -0.2386
vn -0.7277 0.6859 0.0011
vn -0.4981 0.8671 -0.0019
vn -0.9096 0.4117 0.0562
vn 0.2029 0.2951 0.9337
vn 0.0819 0.0975 0.9919
vn 0.0233 0.0147 0.9996
vn 0.0189 0.0157 0.9997
vn 0.4350 0.8285 0.3528
vn 0.5016 0.7583 0.4164
vn 0.5489 0.8163 0.1797
vn 0.6588 0.6503 0.3783
vn 0.4723 0.6988 0.5373
vn 0.4523 0.6702 0.5884
vn 0.3449 0.5047 0.7914
vn 0.5724 0.6096 0.5484
vn 0.5497 0.4245 0.7194
vn -0.2269 -0.1951 -0.9542
vn -0.1103 -0.0999 -0.9889
vn -0.1330 -0.0287 -0.9907
vn -0.4336 0.0492 -0.8997
vn -0.5217 0.0074 -0.8531
vn -0.0460 -0.1056 -0.9933
vn 0.0052 -0.0332 -0.9994
vn -0.0379 -0.2670 -0.9630
vn 0.0318 -0.0461 -0.9984
vn 0.0411 0.0344 -0.9986
vn 0.0355 0.0369 -0.9987
vn -0.0506 -0.3603 -0.9315
vn 0.0575 -0.0019 -0.9983
vn 0.2996 0.2003 -0.9328
vn 0.3441 -0.8420 -0.4154
vn -0.4258 -0.7761 0.4651
vn -0.4489 -0.8600 0.2427
vn -0.4824 -0.7454 0.4600
vn -0.5192 -0.8469 0.1146
vn -0.7779 -0.6014 -0.1821
vn -0.8387 -0.3697 -0.3998
vn -0.6031 -0.4704 -0.6442
vn -0.4271 -0.6708 -0.6064
vn -0.4984 -0.8446 -0.1953
vn -0.4588 -0.8122 -0.3604
vn 0.5477 0.8367 0.0016
vn 0.5531 0.8298 -0.0738
vn 0.5907 0.8069 -0.0033
vn 0.5521 0.8260 0.1134
vn 0.5515 0.8288 0.0943
vn 0.2470 0.8937 -0.3747
vn 0.4827 0.8478 -0.2196
vn 0.5399 0.8015 -0.2570
vn 0.3346 0.3539 -0.8734
vn 0.4083 0.5907 -0.6959
vn -0.3303 -0.4152 -0.8476
vn -0.2534 -0.3096 -0.9165
vn -0.4782 0.1136 0.8709
vn -0.1536 -0.0124 0.9881
vn -0.5639 -0.4465 0.6947
vn -0.4961 -0.6918 0.5247
vn -0.5656 -0.6312 0.5307
vn -0.3955 -0.5056 0.7668
vn -0.3973 -0.5193 0.7567
vn -0.9169 0.2431 0.3166
vn -0.7225 0.0825 0.6864
vn -0.7323 -0.1237 0.6697
vn -0.6788 -0.0102 0.7343
vn -0.9793 0.1634 0.1198
vn -0.6734 -0.5896 0.4460
vn -0.9198 0.1640 0.3565
vn -0.9061 0.0829 0.4148
vn -0.8186 -0.5739 0.0227
vn -0.7074 -0.6933 0.1375
vn 0.0988 0.0827 0.9917
vn 0.2199 0.1941 0.9560
vn -0.1022 -0.2336 0.9670
vn -0.1955 -0.3829 0.9029
vn -0.0029 -0.0504 0.9987
vn 0.0180 0.0028 0.9998
vn -0.0675 -0.1189 0.9906
vn -0.0595 -0.1435 0.9879
vn -0.1253 -0.1612 0.9789
vn -0.3434 -0.1686 0.9239
vn -0.2022 -0.0974 0.9745
vn -0.0207 -0.1444 0.9893
vn 0.0760 -0.0428 0.9962
vn -0.1544 -0.7092 0.6878
vn 0.8538 -0.2736 0.4429
vn 0.9950 -0.0521 0.0849
vn 0.9198 -0.1477 0.3634
vn 0.8672 0.1506 0.4747
vn 0.9093 0.3608 0.2073
vn 0.7542 -0.6524 -0.0745
vn 0.9316 -0.3320 -0.1477
vn 0.5932 -0.6946 -0.4069
vn 0.7043 -0.7099 0.0001
vn 0.5956 -0.6794 0.4285
vn 0.7163 -0.6084 0.3417
vn -0.3808 -0.9063 0.1835
vn -0.3329 -0.9184 0.2137
vn -0.4699 -0.8769 0.1009
vn -0.5099 -0.8554 0.0907
vn -0.4882 -0.8608 -0.1438
vn 0.1763 -0.9594 -0.2201
vn 0.3143 -0.9493 -0.0017
vn -0.2058 -0.9195 -0.3349
vn -0.1268 -0.9894 -0.0712
vn -0.0505 -0.9827 -0.1781
vn 0.5588 0.3372 0.7577
vn 0.7391 0.1448 0.6578
vn 0.3818 0.1407 0.9135
vn 0.8199 0.5540 -0.1443
vn 0.8146 0.5747 -0.0783
vn 0.9324 0.3493 0.0930
vn 0.9750 0.2221 0.0045
vn 0.9620 0.2361 -0.1371
vn -0.0624 -0.2661 -0.9619
vn -0.0913 -0.1954 -0.9765
vn -0.1403 -0.2731 -0.9517
vn 0.0956 0.1605 -0.9824
vn 0.0427 0.4232 -0.9050
vn -0.1540 -0.7639 -0.6266
vn -0.1908 -0.8473 -0.4957
vn -0.2438 -0.8025 -0.5446
vn -0.1871 -0.6259 -0.7571
vn -0.1367 -0.6181 -0.7741
vn 0.0767 0.0490 -0.9958
vn 0.1009 0.1202 -0.9876
vn 0.1316 0.1698 -0.9767
vn 0.1198 0.1524 -0.9810
vn 0.3137 0.1578 -0.9363
vn 0.1870 -0.0310 -0.9819
vn 0.0679 -0.3897 -0.9184
vn 0.1840 -0.6481 -0.7390
vn 0.0955 -0.6389 -0.7634
vn 0.2275 -0.1838 -0.9563
vn -0.3157 -0.8333 -0.4537
vn -0.3296 -0.9018 -0.2796
vn -0.3869 -0.7392 -0.5512
vn -0.4447 -0.8212 -0.3576
vn -0.3035 -0.7723 0.5581
vn -0.4094 -0.7565 0.5100
vn -0.2889 -0.8938 0.3431
vn -0.2802 -0.8082 0.5179
vn -0.1808 -0.7770 0.6030
vn 0.2755 0.3824 -0.8820
vn 0.3443 0.4930 -0.7990
vn 0.3435 0.5969 -0.7251
vn 0.1854 0.2602 -0.9476
vn 0.2640 0.6218 -0.7373
vn 0.2681 0.6375 -0.7223
vn 0.4199 0.6054 -0.6762
vn 0.5370 0.7904 -0.2948
vn 0.6653 0.6362 -0.3908
vn 0.6051 0.5009 -0.6188
vn 0.4653 0.5001 -0.7304
vn -0.3968 -0.6475 -0.6505
vn -0.3324 -0.4918 -0.8048
vn -0.2254 -0.4467 0.8658
vn -0.2146 -0.4565 0.8635
vn -0.2977 -0.6022 0.7407
vn -0.3150 -0.5861 0.7465
vn -0.3207 -0.6001 0.7328
vn -0.2377 -0.3374 0.9108
vn -0.2249 -0.3059 0.9251
vn -0.3182 -0.3676 0.8739
vn -0.3317 -0.4087 0.8503
vn -0.0520 -0.2392 0.9696
vn -0.0945 -0.2733 0.9573
vn -0.1533 -0.4089 0.8996
vn -0.1048 -0.4608 0.8813
vn -0.0853 -0.4054 0.9101
vn 0.0544 -0.4499 0.8914
vn 0.1540 -0.6659 0.7300
vn 0.1012 -0.6432 0.7590
vn 0.4299 -0.5498 0.7161
vn 0.4109 -0.0515 0.9102
vn 0.2586 -0.1144 0.9592
vn 0.5844 -0.2203 0.7810
vn 0.5593 -0.1411 0.8169
vn 0.0250 -0.9108 0.4121
vn -0.2288 -0.9670 0.1123
vn -0.0724 -0.9966 0.0386
vn -0.2141 -0.9183 0.3329
vn -0.2034 -0.9028 0.3789
vn 0.1473 -0.9789 0.1413
vn 0.1592 -0.9604 0.2286
vn 0.9111 0.0480 -0.4093
vn 0.9074 -0.2359 -0.3478
vn 0.7309 0.1126 -0.6732
vn 0.6908 -0.4359 -0.5769
vn 0.5690 -0.0155 -0.8222
vn 0.5151 -0.1929 -0.8351
vn 0.5373 -0.3140 -0.7827
vn -0.4227 -0.9062 0.0112
vn -0.4012 -0.9148 -0.0456
vn -0.4627 -0.8863 0.0181
vn -0.4197 -0.8942 -0.1560
vn -0.2316 -0.9681 0.0952
vn -0.2717 -0.9584 0.0879
vn -0.3031 -0.9522 -0.0385
vn -0.2238 -0.9729 -0.0591
vn -0.1843 -0.4754 -0.8603
vn -0.2009 -0.5849 -0.7858
vn -0.3055 -0.5818 -0.7537
vn -0.2589 -0.4860 -0.8347
vn -0.2119 -0.4109 -0.8867
vn 0.1505 0.2001 -0.9681
vn 0.1447 0.1879 -0.9715
vn 0.1375 0.1788 -0.9742
vn -0.3392 -0.6362 -0.6929
vn -0.3709 -0.6976 -0.6130
vn -0.3608 -0.6682 -0.6506
vn -0.4660 -0.8757 -0.1267
vn -0.4717 -0.8688 -0.1508
vn -0.4581 -0.8620 -0.2169
vn -0.4554 -0.8723 -0.1781
vn -0.2727 -0.9565 -0.1039
vn -0.2756 -0.9401 -0.2005
vn -0.2247 -0.9454 -0.2360
vn -0.2284 -0.9692 -0.0921
s 0
f 1//1 2//1 3//1
f 4//2 5//2 6//2
f 7//3 8//3 9//3
f 10//4 9//4 5//4
f 10//5 5//5 4//5
f 11//6 5//6 12//6
f 13//7 9//7 8//7
f 13//8 12//8 5//8
f 13//9 5//9 9//9
f 14//10 1//10 3//10
f 14//11 11//11 12//11
f 14//12 3//12 11//12
f 15//13 13//13 8//13
f 15//14 12//14 13//14
f 15//15 14//15 12//15
f 16//16 1//16 15//16
f 16//17 15//17 8//17
f 17//18 7//18 9//18
f 17//19 18//19 7//19
f 17//20 10//20 18//20
f 17//21 9//21 10//21
f 19//22 7//22 18//22
f 20//23 21//23 22//23
f 20//24 22//24 2//24
f 20//25 2//25 1//25
f 20//26 1//26 16//26
f 23//27 22//27 21//27
f 24//28 15//28 1//28
f 24//29 1//29 14//29
f 24//30 14//30 15//30
f 25//31 3//31 2//31
f 26//32 6//32 5//32
f 26//33 5//33 27//33
f 28//34 27//34 5//34
f 28//35 5//35 11//35
f 29//36 18//36 10//36
f 29//37 10//37 30//37
f 29//38 30//38 31//38
f 32//39 31//39 30//39
f 33//40 30//40 10//40
f 33//41 10//41 4//41
f 33//42 4//42 6//42
f 33//43 32//43 30//43
f 33//44 6//44 32//44
f 34//45 35//45 21//45
f 34//46 36//46 35//46
f 34//47 16//47 36//47
f 34//48 20//48 16//48
f 34//49 21//49 20//49
f 37//50 35//50 36//50
f 37//51 36//51 38//51
f 37//52 39//52 40//52
f 37//53 38//53 39//53
f 41//54 38//54 36//54
f 41//55 36//55 16//55
f 42//56 40//56 39//56
f 43//57 39//57 38//57
f 43//58 44//58 45//58
f 46//59 47//59 48//59
f 49//60 50//60 51//60
f 49//61 51//61 52//61
f 53//62 51//62 50//62
f 53//63 54//63 51//63
f 55//64 54//64 2//64
f 55//65 2//65 22//65
f 55//66 22//66 23//66
f 55//67 23//67 56//67
f 55//68 57//68 54//68
f 55//69 56//69 57//69
f 58//70 19//70 18//70
f 58//71 59//71 19//71
f 58//72 31//72 59//72
f 58//73 29//73 31//73
f 58//74 18//74 29//74
f 60//75 8//75 7//75
f 60//76 7//76 19//76
f 60//77 19//77 59//77
f 61//78 45//78 44//78
f 61//79 62//79 60//79
f 63//80 23//80 21//80
f 63//81 21//81 35//81
f 64//82 11//82 3//82
f 64//83 28//83 11//83
f 65//84 66//84 67//84
f 65//85 53//85 50//85
f 65//86 67//86 53//86
f 65//87 68//87 66//87
f 65//88 50//88 68//88
f 69//89 3//89 25//89
f 69//90 64//90 3//90
f 69//91 67//91 66//91
f 69//92 66//92 64//92
f 70//93 25//93 2//93
f 70//94 53//94 67//94
f 70//95 69//95 25//95
f 70//96 67//96 69//96
f 70//97 2//97 54//97
f 70//98 54//98 53//98
f 71//99 26//99 27//99
f 71//100 6//100 26//100
f 72//101 73//101 74//101
f 72//102 74//102 68//102
f 75//103 73//103 27//103
f 75//104 27//104 28//104
f 75//105 28//105 74//105
f 75//106 74//106 73//106
f 76//107 74//107 28//107
f 76//108 64//108 66//108
f 76//109 28//109 64//109
f 77//110 27//110 73//110
f 77//111 71//111 27//111
f 78//112 79//112 80//112
f 81//113 82//113 83//113
f 84//114 82//114 85//114
f 84//115 83//115 82//115
f 84//116 32//116 83//116
f 84//117 31//117 32//117
f 86//118 82//118 47//118
f 86//119 85//119 82//119
f 86//120 47//120 46//120
f 87//121 47//121 82//121
f 87//122 81//122 88//122
f 87//123 82//123 81//123
f 89//124 49//124 52//124
f 89//125 90//125 49//125
f 91//126 52//126 51//126
f 91//127 51//127 54//127
f 91//128 54//128 57//128
f 92//129 48//129 47//129
f 92//130 47//130 87//130
f 93//131 94//131 48//131
f 93//132 92//132 95//132
f 93//133 48//133 92//133
f 96//134 32//134 6//134
f 96//135 83//135 32//135
f 96//136 6//136 71//136
f 97//137 98//137 59//137
f 97//138 59//138 31//138
f 97//139 31//139 84//139
f 97//140 84//140 85//140
f 97//141 85//141 98//141
f 99//142 37//142 40//142
f 99//143 35//143 37//143
f 99//144 63//144 35//144
f 100//145 41//145 16//145
f 100//146 16//146 8//146
f 101//147 42//147 48//147
f 101//148 48//148 94//148
f 101//149 94//149 102//149
f 101//150 102//150 40//150
f 101//151 40//151 42//151
f 103//152 43//152 38//152
f 103//153 38//153 41//153
f 103//154 100//154 43//154
f 103//155 41//155 100//155
f 104//156 43//156 45//156
f 104//157 39//157 43//157
f 105//158 42//158 39//158
f 105//159 46//159 48//159
f 105//160 48//160 42//160
f 105//161 39//161 104//161
f 106//162 102//162 94//162
f 106//163 94//163 107//163
f 106//164 56//164 102//164
f 106//165 57//165 56//165
f 108//166 49//166 80//166
f 108//167 50//167 49//167
f 109//168 49//168 90//168
f 109//169 80//169 49//169
f 109//170 78//170 80//170
f 110//171 61//171 44//171
f 110//172 62//172 61//172
f 110//173 60//173 62//173
f 110//174 44//174 100//174
f 110//175 100//175 8//175
f 110//176 8//176 60//176
f 111//177 61//177 60//177
f 111//178 60//178 59//178
f 111//179 59//179 98//179
f 111//180 98//180 45//180
f 111//181 45//181 61//181
f 112//182 56//182 23//182
f 112//183 23//183 63//183
f 113//184 72//184 68//184
f 113//185 80//185 72//185
f 113//186 108//186 80//186
f 113//187 68//187 50//187
f 113//188 50//188 108//188
f 114//189 68//189 74//189
f 114//190 74//190 76//190
f 114//191 76//191 66//191
f 114//192 66//192 68//192
f 115//193 77//193 73//193
f 115//194 73//194 72//194
f 115//195 72//195 80//195
f 115//196 80//196 79//196
f 115//197 79//197 77//197
f 116//198 77//198 79//198
f 116//199 78//199 88//199
f 116//200 79//200 78//200
f 116//201 88//201 81//201
f 116//202 96//202 71//202
f 116//203 71//203 77//203
f 116//204 81//204 83//204
f 116//205 83//205 96//205
f 117//206 88//206 78//206
f 117//207 90//207 95//207
f 117//208 95//208 92//208
f 117//209 109//209 90//209
f 117//210 78//210 109//210
f 117//211 92//211 87//211
f 117//212 87//212 88//212
f 118//213 98//213 85//213
f 118//214 85//214 86//214
f 118//215 45//215 98//215
f 118//216 86//216 46//216
f 118//217 104//217 45//217
f 118//218 105//218 104//218
f 118//219 46//219 105//219
f 119//220 89//220 52//220
f 119//221 107//221 89//221
f 119//222 52//222 91//222
f 119//223 106//223 107//223
f 120//224 95//224 90//224
f 120//225 90//225 89//225
f 120//226 89//226 107//226
f 120//227 93//227 95//227
f 121//228 99//228 40//228
f 121//229 40//229 102//229
f 121//230 102//230 112//230
f 121//231 112//231 63//231
f 121//232 63//232 99//232
f 122//233 100//233 44//233
f 122//234 44//234 43//234
f 122//235 43//235 100//235
f 123//236 112//236 102//236
f 123//237 102//237 56//237
f 123//238 56//238 112//238
f 124//239 119//239 91//239
f 124//240 91//240 57//240
f 124//241 57//241 106//241
f 124//242 106//242 119//242
f 125//243 120//243 107//243
f 125//244 107//244 94//244
f 125//245 94//245 93//245
f 125//246 93//246 120//246
