# Blender 4.0.2
# www.blender.org
mtllib idx-F1-hull.mtl
o idx-F1-hull
v 0.003245 -0.004481 -0.006938
v 0.002751 -0.003799 -0.007400
v 0.002751 -0.003799 0.007139
v -0.004111 -0.002287 -0.008064
v -0.044047 0.001537 -0.007208
v -0.040999 0.004956 -0.007205
v -0.011484 0.005128 -0.006891
v -0.043266 -0.003026 -0.007205
v -0.010991 0.007963 -0.004784
v -0.044082 -0.000962 0.006003
v -0.042515 -0.003806 0.007203
v -0.044240 -0.000519 0.007200
v -0.044021 -0.000683 -0.006003
v -0.032336 -0.012694 -0.000962
v -0.040781 -0.005039 -0.007203
v -0.032166 -0.012387 0.003295
v 0.003227 -0.004459 0.006697
v 0.004380 -0.008976 0.001024
v 0.004014 -0.008595 -0.003135
v 0.003482 -0.009350 -0.003363
v -0.003790 0.002795 0.001077
v -0.010465 0.009493 0.000894
v -0.043703 0.001988 0.006003
v -0.042625 0.003691 0.007203
v -0.043420 0.002911 -0.006003
v -0.006488 -0.004231 -0.007968
v -0.014007 0.007161 -0.005786
v -0.029829 0.007229 -0.006437
v -0.013812 0.008961 -0.004255
v -0.010468 0.009144 -0.002893
v -0.015041 0.010067 -0.002082
v -0.042659 -0.003653 0.006003
v -0.031757 -0.012288 -0.003591
v -0.031493 -0.011595 -0.005267
v -0.009243 -0.011464 -0.003631
v -0.042898 -0.003472 -0.006004
v -0.008181 -0.012130 0.000438
v 0.000986 -0.010873 0.001128
v -0.004293 -0.011480 0.002110
v 0.004082 -0.009780 -0.000474
v 0.000911 -0.010615 -0.002332
v 0.002644 -0.005157 -0.007090
v -0.030467 -0.009672 -0.006888
v 0.003127 -0.008221 0.004677
v -0.010184 0.007444 0.004765
v -0.010893 0.006388 0.006076
v -0.010482 0.008426 0.003669
v -0.010180 0.008281 0.003541
v -0.040010 -0.005346 0.007203
v -0.003800 -0.002776 0.007962
v -0.031309 -0.011351 0.005691
v -0.030814 -0.010007 0.006929
v -0.027889 0.001270 0.007534
v -0.040348 0.005261 0.007203
v -0.028604 0.004460 0.007402
v -0.011428 0.004882 0.006906
v -0.041512 0.004677 0.006002
v -0.031101 0.010065 -0.000271
v -0.031186 0.009872 0.002276
v -0.031083 0.009816 -0.002541
v -0.029165 0.009058 0.004526
v -0.030238 0.008176 0.005619
v -0.029301 0.006785 0.006826
v -0.037020 0.005436 -0.007202
v -0.028762 0.004861 -0.007235
v -0.011883 0.002492 -0.007439
v -0.030700 0.009143 -0.004341
v -0.009622 0.008595 -0.000840
v -0.012744 0.010166 -0.000410
v -0.012500 0.009574 0.003077
v -0.027248 -0.012694 0.000716
v -0.030855 -0.010789 -0.006327
v -0.007996 -0.009979 -0.005480
v -0.004990 -0.007675 -0.006986
v -0.003987 -0.008897 -0.006125
v 0.002407 -0.007507 -0.005790
v -0.004696 -0.005973 -0.007681
v 0.003698 -0.009667 0.001914
v 0.000871 -0.009529 0.004099
v -0.010621 0.008477 0.003718
v -0.012820 0.008666 0.004466
v -0.005631 -0.004625 0.007856
v -0.004545 -0.006948 0.007265
v 0.002005 -0.006021 0.006447
v -0.004459 -0.001527 0.007782
v -0.016105 -0.011961 0.002759
v -0.008223 -0.011177 0.003835
v -0.007191 -0.009016 0.006167
v -0.015832 0.010052 0.001917
v -0.003498 -0.003124 -0.008056
v -0.002602 -0.003928 -0.007917
v -0.028764 0.008278 -0.005350
v -0.016746 0.009491 -0.003460
v -0.015662 0.010258 0.000083
v -0.017316 -0.012410 0.000826
v -0.015519 -0.011953 -0.002926
v -0.007998 -0.012020 -0.001419
v -0.026799 -0.012509 -0.002125
v -0.004052 -0.011275 -0.002721
v -0.019097 -0.012446 -0.001063
v -0.003676 -0.011626 -0.000747
v -0.004444 -0.010546 -0.004371
v -0.002425 -0.007531 -0.006723
v -0.000076 -0.008580 -0.005481
v 0.001791 -0.004342 -0.007442
v -0.003829 -0.010805 0.003530
v -0.024176 0.007908 0.005700
v -0.011176 0.008635 0.003878
v -0.000761 -0.007797 0.005903
v 0.002295 -0.005098 0.006749
v -0.012513 0.003066 0.007312
v -0.008229 -0.011840 0.002105
v -0.004648 -0.009753 0.005280
v -0.021076 0.010132 -0.000702
v 0.002452 -0.003998 -0.007412
v -0.002409 -0.004053 0.007695
v -0.001135 -0.004581 0.007453
v 0.001607 -0.004423 0.007174
v -0.021712 -0.012193 0.002583
v -0.009865 -0.010176 0.005256
v 0.002603 -0.003901 -0.007406
v -0.003150 -0.003475 0.007855
v 0.002025 -0.004985 0.006875
v 0.002603 -0.003901 0.007140
v 0.002603 -0.003901 -0.007406
v 0.002452 -0.003998 0.007143
vn 0.8100 0.5864 -0.0000
vn -0.0197 0.0184 -0.9996
vn 0.1582 0.3058 -0.9389
vn -0.0219 -0.0044 -0.9998
vn 0.3062 0.5331 -0.7887
vn -0.8842 -0.4638 0.0547
vn -0.9495 -0.3136 -0.0096
vn -0.9536 -0.3010 -0.0121
vn -0.9997 -0.0206 -0.0163
vn -0.9467 -0.1622 -0.2784
vn -0.6261 -0.7731 -0.1011
vn -0.6178 -0.7821 0.0811
vn 0.8108 0.5853 0.0001
vn 0.9692 0.2464 0.0008
vn 0.9905 0.1140 -0.0769
vn 0.7526 -0.3655 -0.5476
vn 0.7083 0.7059 0.0036
vn 0.7099 0.7043 -0.0000
vn 0.7084 0.7059 -0.0025
vn -0.9758 0.2178 0.0180
vn -0.8866 0.3399 0.3137
vn -0.6998 0.6242 -0.3475
vn -0.8513 0.5243 0.0203
vn -0.9129 0.4080 0.0099
vn -0.0216 -0.0273 -0.9994
vn -0.0215 -0.0232 -0.9995
vn 0.0342 0.6453 -0.7632
vn 0.0375 0.5128 -0.8577
vn 0.1139 0.5799 -0.8067
vn 0.0836 0.6403 -0.7636
vn 0.4764 0.6804 -0.5569
vn 0.1825 0.8104 -0.5567
vn 0.1129 0.9100 -0.3990
vn -0.8839 -0.4672 0.0185
vn -0.8832 -0.4668 0.0462
vn -0.5461 -0.8014 -0.2440
vn -0.4716 -0.7861 -0.3996
vn 0.0332 -0.9254 -0.3776
vn -0.6577 -0.7533 -0.0000
vn -0.6291 -0.7717 -0.0937
vn -0.7790 -0.6269 0.0061
vn -0.7483 -0.6633 0.0049
vn 0.1292 -0.9881 0.0839
vn 0.9796 -0.1730 -0.1022
vn 0.8254 -0.5075 -0.2472
vn 0.2961 -0.9520 -0.0775
vn 0.3625 -0.9078 -0.2107
vn 0.4746 -0.2312 -0.8493
vn -0.0195 -0.1111 -0.9936
vn 0.9090 -0.2157 0.3565
vn 0.3940 0.6003 0.6961
vn 0.5200 0.7013 0.4876
vn 0.5354 0.7096 0.4581
vn 0.6153 0.7398 0.2724
vn 0.5154 0.7988 0.3101
vn -0.0188 -0.0306 0.9994
vn -0.2783 -0.5936 0.7551
vn -0.4711 -0.7668 0.4360
vn -0.4382 -0.7571 0.4845
vn -0.0194 -0.0093 0.9998
vn -0.0193 -0.0094 0.9998
vn -0.0212 0.0074 0.9997
vn -0.0181 0.0265 0.9995
vn -0.0112 0.0390 0.9992
vn -0.0143 0.0383 0.9992
vn 0.2331 0.4045 0.8843
vn -0.6656 0.7463 -0.0040
vn -0.6479 0.7617 -0.0091
vn -0.5612 0.8143 0.1485
vn -0.4255 0.9033 0.0543
vn -0.3982 0.9115 -0.1031
vn -0.4553 0.8903 0.0090
vn -0.4592 0.8884 0.0009
vn -0.0124 0.9940 -0.1090
vn -0.1605 0.8391 0.5197
vn -0.1796 0.8624 0.4732
vn -0.0000 0.2403 0.9707
vn -0.0606 0.6306 0.7737
vn 0.0219 0.2465 0.9689
vn 0.0460 0.4695 0.8817
vn 0.0150 0.2705 -0.9626
vn 0.0053 0.1332 -0.9911
vn -0.0084 0.0754 -0.9971
vn -0.0758 0.6328 -0.7706
vn 0.0155 0.3390 -0.9407
vn 0.0164 0.2011 -0.9794
vn 0.0425 0.1972 -0.9794
vn 0.0080 0.1424 -0.9898
vn -0.0977 0.7144 -0.6929
vn -0.2534 0.8872 -0.3857
vn -0.0046 0.9363 -0.3512
vn 0.6565 0.7511 -0.0697
vn 0.6995 0.7140 -0.0295
vn 0.6817 0.7264 -0.0866
vn 0.1468 0.9548 -0.2586
vn 0.3277 0.9408 -0.0869
vn 0.2000 0.9682 0.1505
vn -0.0239 -0.9971 0.0728
vn 0.0506 -0.7950 -0.6046
vn 0.0478 -0.8089 -0.5860
vn 0.0325 -0.4575 -0.8886
vn -0.3177 -0.6531 -0.6874
vn -0.1524 -0.4007 -0.9034
vn 0.0450 -0.5503 -0.8337
vn 0.0511 -0.6442 -0.7631
vn 0.6369 -0.4213 -0.6457
vn 0.6695 -0.4182 -0.6139
vn -0.0062 -0.1684 -0.9857
vn 0.0264 -0.3821 -0.9238
vn 0.7955 -0.5856 0.1559
vn 0.8534 -0.3683 0.3690
vn 0.3789 -0.9195 0.1047
vn 0.2709 -0.8729 0.4057
vn 0.3396 -0.8028 0.4901
vn 0.4243 0.8444 0.3271
vn 0.3890 0.8598 0.3307
vn 0.4484 0.7226 0.5261
vn 0.0208 0.7679 0.6402
vn 0.0220 0.8347 0.5503
vn 0.2415 0.6880 0.6843
vn 0.0155 -0.2396 0.9708
vn -0.0170 -0.0921 0.9956
vn -0.0181 -0.0393 0.9991
vn 0.4003 -0.4418 0.8029
vn 0.1554 0.2203 0.9630
vn 0.1864 0.3292 0.9257
vn 0.0382 -0.9201 0.3899
vn 0.0373 -0.9219 0.3857
vn 0.0492 -0.5168 0.8547
vn 0.0522 -0.6872 0.7246
vn 0.0037 0.9281 0.3722
vn -0.0030 0.9395 0.3425
vn 0.0851 0.9833 0.1611
vn -0.0207 -0.0242 -0.9995
vn 0.0224 -0.1397 -0.9899
vn 0.0271 -0.1416 -0.9896
vn 0.0974 -0.0638 -0.9932
vn 0.1120 0.0731 -0.9910
vn 0.0115 0.7702 -0.6377
vn 0.0191 0.7099 -0.7040
vn -0.0275 0.7325 -0.6802
vn 0.0014 0.9222 -0.3867
vn 0.0456 0.9006 -0.4323
vn 0.0118 0.8515 -0.5242
vn 0.0174 0.9964 -0.0831
vn 0.0509 0.9919 0.1162
vn -0.0142 0.9971 0.0750
vn -0.0091 0.9938 0.1108
vn 0.0263 -0.9856 0.1672
vn 0.0337 -0.9363 -0.3495
vn 0.0449 -0.9626 -0.2672
vn 0.0011 -0.9883 -0.1522
vn 0.0333 -0.9773 -0.2094
vn 0.0301 -0.9684 -0.2474
vn 0.0853 -0.9539 -0.2877
vn 0.0365 -0.9978 -0.0556
vn 0.0286 -0.9996 -0.0078
vn 0.0302 -0.9995 -0.0093
vn 0.0322 -0.9839 -0.1757
vn 0.0182 -0.9983 -0.0551
vn 0.0181 -0.9972 -0.0728
vn 0.1890 -0.9789 -0.0771
vn 0.1444 -0.9691 -0.1998
vn 0.1193 -0.9734 -0.1957
vn 0.1301 -0.9888 0.0733
vn 0.0984 -0.9939 -0.0493
vn 0.0600 -0.7975 -0.6003
vn 0.0913 -0.7372 -0.6694
vn 0.1070 -0.8999 -0.4227
vn 0.1519 -0.8903 -0.4292
vn 0.1922 -0.8241 -0.5328
vn 0.1157 -0.5068 -0.8543
vn 0.1170 -0.3907 -0.9131
vn 0.1153 -0.3928 -0.9124
vn 0.1616 -0.5453 -0.8225
vn 0.1677 -0.4900 -0.8555
vn 0.2314 -0.7229 -0.6511
vn 0.1758 -0.6256 -0.7601
vn 0.1672 -0.7396 -0.6519
vn 0.1936 -0.7720 -0.6054
vn 0.0865 -0.2008 -0.9758
vn 0.1094 -0.2958 -0.9490
vn 0.1745 -0.9101 0.3757
vn 0.1923 -0.8912 0.4109
vn 0.1049 -0.9110 0.3989
vn 0.0455 0.5961 0.8016
vn 0.0464 0.6024 0.7968
vn 0.0237 0.7395 0.6727
vn 0.0193 0.6627 0.7486
vn 0.3562 0.8443 0.4003
vn 0.2183 0.7932 0.5685
vn 0.2510 0.7037 0.6647
vn 0.3731 0.7334 0.5682
vn 0.1787 -0.5319 0.8277
vn 0.1953 -0.5523 0.8104
vn 0.3118 -0.3832 0.8694
vn 0.3031 -0.3698 0.8783
vn 0.0504 0.1889 0.9807
vn 0.0232 0.2047 0.9786
vn 0.0173 0.1361 0.9905
vn 0.0332 0.1593 0.9867
vn 0.0895 -0.9808 0.1734
vn 0.0375 -0.9843 0.1724
vn 0.0846 -0.9306 0.3562
vn 0.0440 -0.9330 0.3573
vn 0.1083 -0.8289 0.5488
vn 0.1531 -0.8137 0.5607
vn 0.1603 -0.5741 0.8029
vn 0.1150 -0.5767 0.8089
vn 0.1848 -0.6462 0.7405
vn 0.1792 -0.6033 0.7771
vn -0.0099 0.9958 -0.0908
vn -0.0108 0.9955 -0.0944
vn -0.0105 0.9961 -0.0873
vn 0.0974 -0.1011 -0.9901
vn 0.1674 -0.2384 -0.9566
vn 0.0855 -0.2078 0.9744
vn 0.0957 -0.2149 0.9719
vn 0.1121 -0.2380 0.9648
vn 0.1101 -0.1824 0.9770
vn 0.0333 -0.9747 0.2212
vn 0.0333 -0.9744 0.2225
vn 0.0319 -0.9791 0.2009
vn 0.0328 -0.9786 0.2031
vn 0.0526 -0.6888 0.7231
vn 0.0523 -0.6884 0.7234
vn 0.0555 -0.7850 0.6169
vn 0.0606 -0.7818 0.6206
vn 0.0978 -0.0870 -0.9914
vn 0.0978 -0.0835 -0.9917
vn 0.0494 -0.1059 0.9932
vn 0.0791 -0.1700 0.9823
vn 0.1125 -0.1280 0.9854
vn 0.1181 -0.0420 0.9921
vn 0.2658 -0.3613 0.8938
vn 0.2592 -0.3736 0.8906
vn 0.1634 -0.3649 0.9166
vn 0.1675 -0.3798 0.9098
vn 0.1133 -0.1511 0.9820
vn 0.1133 -0.1540 0.9815
vn 0.2550 -0.3559 0.8990
vn -0.0000 -0.0312 -0.9995
vn 0.2001 -0.2330 -0.9517
vn 0.1901 -0.2338 -0.9535
vn -0.0000 -0.0624 0.9981
vn 0.1140 -0.1554 0.9812
vn 0.2031 -0.3368 0.9194
vn 0.2361 -0.3479 0.9073
s 0
f 1//1 2//1 3//1
f 4//2 5//2 6//2
f 4//3 7//3 2//3
f 4//4 8//4 5//4
f 9//5 2//5 7//5
f 10//6 11//6 12//6
f 10//7 12//7 8//7
f 13//8 8//8 12//8
f 13//9 12//9 5//9
f 13//10 5//10 8//10
f 14//11 8//11 15//11
f 14//12 16//12 11//12
f 17//13 1//13 3//13
f 17//14 18//14 1//14
f 19//15 1//15 18//15
f 19//16 20//16 1//16
f 21//17 22//17 3//17
f 21//18 3//18 2//18
f 21//19 2//19 22//19
f 23//20 5//20 12//20
f 23//21 12//21 24//21
f 25//22 6//22 5//22
f 25//23 23//23 24//23
f 25//24 5//24 23//24
f 26//25 15//25 8//25
f 26//26 8//26 4//26
f 27//27 28//27 29//27
f 27//28 7//28 28//28
f 27//29 9//29 7//29
f 27//30 29//30 9//30
f 30//31 2//31 9//31
f 30//32 9//32 29//32
f 30//33 29//33 31//33
f 32//34 10//34 8//34
f 32//35 11//35 10//35
f 33//36 14//36 15//36
f 33//37 15//37 34//37
f 33//38 34//38 35//38
f 36//39 14//39 11//39
f 36//40 8//40 14//40
f 36//41 32//41 8//41
f 36//42 11//42 32//42
f 37//43 38//43 39//43
f 40//44 19//44 18//44
f 40//45 20//45 19//45
f 41//46 40//46 38//46
f 41//47 20//47 40//47
f 42//48 2//48 1//48
f 43//49 15//49 26//49
f 44//50 18//50 17//50
f 45//51 46//51 3//51
f 45//52 3//52 47//52
f 48//53 47//53 3//53
f 48//54 3//54 22//54
f 48//55 22//55 47//55
f 49//56 50//56 11//56
f 49//57 51//57 52//57
f 49//58 11//58 16//58
f 49//59 16//59 51//59
f 53//60 12//60 11//60
f 53//61 11//61 50//61
f 53//62 24//62 12//62
f 53//63 54//63 24//63
f 53//64 50//64 55//64
f 53//65 55//65 54//65
f 56//66 3//66 46//66
f 57//67 25//67 24//67
f 57//68 6//68 25//68
f 57//69 24//69 54//69
f 58//70 54//70 59//70
f 58//71 60//71 6//71
f 58//72 57//72 54//72
f 58//73 6//73 57//73
f 58//74 31//74 60//74
f 61//75 54//75 62//75
f 61//76 59//76 54//76
f 63//77 54//77 55//77
f 63//78 62//78 54//78
f 63//79 55//79 56//79
f 63//80 56//80 46//80
f 64//81 7//81 65//81
f 64//82 65//82 4//82
f 64//83 4//83 6//83
f 64//84 6//84 28//84
f 64//85 28//85 7//85
f 66//86 65//86 7//86
f 66//87 7//87 4//87
f 66//88 4//88 65//88
f 67//89 28//89 6//89
f 67//90 6//90 60//90
f 67//91 60//91 31//91
f 68//92 30//92 22//92
f 68//93 22//93 2//93
f 68//94 2//94 30//94
f 69//95 30//95 31//95
f 69//96 22//96 30//96
f 69//97 70//97 22//97
f 71//98 16//98 14//98
f 72//99 73//99 35//99
f 72//100 35//100 34//100
f 72//101 43//101 74//101
f 72//102 34//102 15//102
f 72//103 15//103 43//103
f 75//104 72//104 74//104
f 75//105 73//105 72//105
f 76//106 42//106 1//106
f 76//107 1//107 20//107
f 77//108 43//108 26//108
f 77//109 74//109 43//109
f 78//110 40//110 18//110
f 78//111 18//111 44//111
f 78//112 38//112 40//112
f 78//113 79//113 38//113
f 78//114 44//114 79//114
f 80//115 47//115 22//115
f 80//116 22//116 70//116
f 80//117 45//117 47//117
f 81//118 61//118 62//118
f 81//119 70//119 61//119
f 81//120 46//120 45//120
f 82//121 52//121 83//121
f 82//122 49//122 52//122
f 82//123 50//123 49//123
f 84//124 44//124 17//124
f 85//125 50//125 3//125
f 85//126 3//126 56//126
f 86//127 87//127 51//127
f 86//128 51//128 16//128
f 88//129 83//129 52//129
f 88//130 52//130 51//130
f 89//131 61//131 70//131
f 89//132 59//132 61//132
f 89//133 70//133 69//133
f 90//134 26//134 4//134
f 90//135 77//135 26//135
f 90//136 91//136 77//136
f 90//137 2//137 91//137
f 90//138 4//138 2//138
f 92//139 67//139 29//139
f 92//140 29//140 28//140
f 92//141 28//141 67//141
f 93//142 67//142 31//142
f 93//143 31//143 29//143
f 93//144 29//144 67//144
f 94//145 69//145 31//145
f 94//146 89//146 69//146
f 94//147 58//147 59//147
f 94//148 59//148 89//148
f 95//149 16//149 71//149
f 96//150 33//150 35//150
f 96//151 35//151 97//151
f 98//152 14//152 33//152
f 98//153 96//153 97//153
f 98//154 33//154 96//154
f 99//155 97//155 35//155
f 100//156 97//156 37//156
f 100//157 95//157 71//157
f 100//158 37//158 95//158
f 100//159 98//159 97//159
f 100//160 71//160 14//160
f 100//161 14//161 98//161
f 101//162 41//162 38//162
f 101//163 99//163 41//163
f 101//164 97//164 99//164
f 101//165 38//165 37//165
f 101//166 37//166 97//166
f 102//167 35//167 73//167
f 102//168 73//168 75//168
f 102//169 99//169 35//169
f 102//170 41//170 99//170
f 102//171 20//171 41//171
f 103//172 75//172 74//172
f 103//173 77//173 42//173
f 103//174 74//174 77//174
f 103//175 76//175 75//175
f 103//176 42//176 76//176
f 104//177 76//177 20//177
f 104//178 75//178 76//178
f 104//179 102//179 75//179
f 104//180 20//180 102//180
f 105//181 77//181 91//181
f 105//182 42//182 77//182
f 106//183 39//183 38//183
f 106//184 38//184 79//184
f 106//185 87//185 39//185
f 107//186 63//186 46//186
f 107//187 46//187 81//187
f 107//188 81//188 62//188
f 107//189 62//189 63//189
f 108//190 80//190 70//190
f 108//191 70//191 81//191
f 108//192 81//192 45//192
f 108//193 45//193 80//193
f 109//194 84//194 83//194
f 109//195 44//195 84//195
f 110//196 84//196 17//196
f 110//197 17//197 3//197
f 111//198 85//198 56//198
f 111//199 56//199 55//199
f 111//200 55//200 50//200
f 111//201 50//201 85//201
f 112//202 37//202 39//202
f 112//203 95//203 37//203
f 112//204 39//204 87//204
f 112//205 87//205 86//205
f 113//206 87//206 106//206
f 113//207 106//207 79//207
f 113//208 109//208 83//208
f 113//209 83//209 88//209
f 113//210 79//210 44//210
f 113//211 44//211 109//211
f 114//212 94//212 31//212
f 114//213 31//213 58//213
f 114//214 58//214 94//214
f 115//215 105//215 91//215
f 115//216 42//216 105//216
f 116//217 82//217 83//217
f 116//218 83//218 117//218
f 118//219 117//219 83//219
f 118//220 116//220 117//220
f 119//221 112//221 86//221
f 119//222 86//222 16//222
f 119//223 16//223 95//223
f 119//224 95//224 112//224
f 120//225 113//225 88//225
f 120//226 88//226 51//226
f 120//227 51//227 87//227
f 120//228 87//228 113//228
f 121//229 115//229 91//229
f 121//230 91//230 2//230
f 122//231 50//231 82//231
f 122//232 82//232 116//232
f 122//233 116//233 3//233
f 122//234 3//234 50//234
f 123//235 110//235 3//235
f 123//236 84//236 110//236
f 123//237 118//237 83//237
f 123//238 83//238 84//238
f 124//239 3//239 116//239
f 124//240 116//240 118//240
f 124//241 123//241 3//241
f 125//242 121//242 2//242
f 125//243 2//243 42//243
f 125//244 42//244 115//244
f 125//245 115//245 121//245
f 126//246 124//246 118//246
f 126//247 118//247 123//247
f 126//248 123//248 124//248
