# Blender 4.0.2
# www.blender.org
mtllib palm_hull_mir.mtl
o palm_hull_mir
v -0.011661 -0.020416 0.029918
v -0.029117 0.018601 0.028367
v -0.052282 0.000724 0.026311
v -0.057829 -0.022476 -0.066029
v -0.053465 -0.022346 -0.070927
v -0.056944 -0.026478 -0.055944
v -0.051320 -0.010863 0.026395
v -0.045242 -0.018454 0.026935
v -0.037092 -0.018077 0.027659
v -0.003558 -0.009087 0.030636
v -0.002083 -0.001174 0.030766
v -0.029651 -0.024520 0.028319
v -0.037415 -0.023191 0.027629
v -0.015602 -0.022893 0.029567
v -0.021802 -0.025142 0.029005
v 0.008087 -0.019021 -0.005491
v 0.016167 -0.027582 -0.054666
v -0.029174 0.018573 0.016528
v 0.009985 -0.002997 -0.065882
v -0.052084 -0.002562 -0.065767
v -0.055325 0.008665 -0.004356
v -0.001714 0.009226 -0.016751
v 0.013355 -0.026914 -0.068915
v -0.003996 -0.032641 -0.057668
v -0.008104 -0.029984 -0.072323
v -0.059921 -0.004250 0.011466
v -0.060090 -0.009681 0.005971
v -0.057512 -0.009043 0.014265
v -0.006687 0.010632 0.029616
v -0.039152 0.015400 0.027476
v -0.043539 0.012566 0.027086
v -0.033019 0.017976 0.028020
v -0.027891 0.019080 0.019520
v -0.045888 0.013861 0.013705
v -0.051879 0.010523 0.013830
v -0.057174 0.007684 -0.004951
v -0.060176 0.000928 -0.022217
v -0.060111 0.003553 -0.009543
v -0.056903 0.008142 0.002456
v -0.054279 0.009674 0.001677
v -0.030077 -0.006213 -0.074257
v -0.053105 -0.027866 -0.056009
v -0.033201 -0.028649 -0.072304
v -0.014680 -0.033219 -0.058836
v -0.047567 -0.018380 0.021779
v -0.058536 -0.016957 -0.009757
v -0.056730 -0.019105 -0.012919
v -0.055168 -0.015786 0.006663
v -0.057938 -0.020208 -0.023731
v -0.058885 -0.024287 -0.052378
v -0.060673 -0.018958 -0.040666
v -0.061030 -0.014761 -0.051582
v -0.060650 -0.015167 -0.019110
v -0.049882 -0.013719 0.026522
v -0.058919 -0.010517 0.008128
v -0.007607 -0.016397 0.030276
v 0.002365 -0.012936 0.021369
v 0.001890 -0.009322 0.025175
v -0.035034 -0.024224 0.025172
v 0.010272 -0.027775 -0.043886
v 0.007810 -0.029783 -0.053058
v 0.003074 -0.015248 0.015650
v 0.017772 -0.015676 -0.031066
v 0.019405 -0.022904 -0.062937
v 0.018263 -0.009233 -0.035043
v 0.016555 -0.010010 -0.064151
v 0.015627 -0.002553 -0.037285
v 0.014055 -0.006235 -0.066265
v 0.011511 0.001000 -0.038317
v 0.015022 -0.010396 -0.069850
v 0.012141 -0.009299 -0.072833
v 0.013003 -0.002099 -0.016433
v 0.008818 -0.006587 0.011627
v 0.010374 0.003157 -0.016563
v -0.037102 0.016560 0.018260
v -0.047704 0.013123 0.011096
v 0.004933 0.007436 -0.016665
v -0.023934 0.019582 0.023592
v -0.021584 0.019099 0.026266
v 0.012772 -0.015384 -0.074257
v 0.016362 -0.016922 -0.070203
v 0.013977 -0.022390 -0.071999
v -0.008922 -0.024344 -0.078510
v -0.008759 -0.016816 -0.079741
v 0.016423 -0.026735 -0.065204
v 0.013276 -0.028373 -0.056545
v 0.000251 -0.031356 -0.053254
v -0.058981 -0.002070 0.013384
v -0.059912 0.002707 0.006751
v -0.052483 -0.006566 0.026292
v -0.061345 -0.003074 0.004227
v -0.061870 -0.005260 -0.003731
v -0.016101 0.017236 0.028365
v -0.010314 0.014590 0.028329
v -0.056615 0.004039 0.014138
v -0.049746 0.006066 0.026535
v -0.051486 0.007794 0.020567
v -0.045730 0.010631 0.026864
v -0.057608 0.006110 0.008379
v -0.058748 -0.004152 -0.045416
v -0.060252 0.003486 0.002664
v -0.060990 -0.002128 -0.026783
v -0.061977 -0.005754 -0.023137
v -0.061931 -0.010035 -0.022753
v -0.030594 -0.016427 -0.079253
v -0.031017 -0.023354 -0.077906
v -0.052106 -0.014606 -0.074001
v -0.051043 -0.009961 -0.074186
v -0.032084 -0.027063 -0.075358
v -0.051299 -0.005009 -0.070724
v -0.011837 -0.032824 -0.061861
v -0.038598 -0.030734 -0.061097
v -0.039635 -0.030108 -0.050259
v -0.027754 -0.032250 -0.058633
v -0.056512 -0.021885 -0.068976
v -0.056519 -0.017746 -0.069576
v -0.058213 -0.016032 -0.066764
v -0.060506 -0.012112 -0.004526
v 0.001170 -0.003581 0.027358
v -0.000776 0.004536 0.028182
v 0.007822 -0.009963 0.012537
v -0.044850 -0.029129 -0.049836
v -0.008204 -0.028680 -0.075182
v 0.017740 -0.024924 -0.049224
v 0.010994 -0.009749 0.003496
v 0.018740 -0.017908 -0.065254
v 0.011271 -0.004858 -0.068522
v -0.009103 -0.010183 -0.077214
v -0.003275 0.010560 0.019877
v 0.002447 0.002122 0.022293
v 0.018199 -0.023891 -0.066429
v -0.053782 0.010098 0.008986
v 0.011837 -0.012564 -0.074415
v 0.013356 -0.013685 -0.073782
v -0.021294 0.018690 0.027539
v -0.006541 0.013384 0.017315
v -0.003266 0.006570 0.029320
v -0.056362 -0.007986 -0.065164
v -0.058649 -0.006217 -0.051242
v -0.061895 -0.001750 -0.008514
v -0.060017 -0.009287 -0.050997
v -0.060453 -0.003526 -0.034365
v -0.061791 -0.011561 -0.035476
v -0.061712 -0.009118 -0.010527
v -0.030421 -0.011352 -0.078078
v -0.054051 -0.011061 -0.071746
v -0.018184 -0.032800 -0.055053
v -0.032112 -0.031707 -0.059494
v 0.006819 -0.005351 0.016178
v 0.009120 -0.014872 0.001914
v -0.060601 0.002742 -0.002974
v 0.011576 -0.013273 -0.001778
v 0.012266 -0.019731 -0.019032
v 0.015647 -0.018388 -0.026904
v 0.010974 -0.017766 -0.010401
v 0.013766 -0.019478 -0.023028
vn -0.0884 -0.0000 0.9961
vn -0.3350 -0.8855 -0.3220
vn -0.0885 -0.0001 0.9961
vn -0.0884 0.0001 0.9961
vn -0.0885 -0.0002 0.9961
vn -0.0877 -0.0073 0.9961
vn 0.4736 -0.8513 0.2260
vn 0.5000 -0.8303 0.2461
vn 0.0063 0.9681 -0.2504
vn -0.2143 0.9588 -0.1866
vn 0.0531 0.9719 -0.2292
vn 0.1726 -0.9596 -0.2223
vn -0.9105 -0.2798 0.3045
vn -0.0243 0.0876 0.9959
vn -0.0886 0.0002 0.9961
vn -0.1608 0.9865 0.0311
vn -0.3925 0.9154 0.0897
vn -0.0885 0.0001 0.9961
vn -0.4799 0.8664 0.1379
vn -0.5431 0.8112 0.2166
vn -0.4132 0.8917 -0.1848
vn -0.6437 0.7440 -0.1792
vn -0.7307 0.6693 -0.1349
vn -0.8117 0.5840 -0.0063
vn -0.4492 0.8906 -0.0711
vn -0.5114 0.8586 -0.0343
vn 0.0058 0.9240 -0.3824
vn -0.3269 -0.8889 -0.3211
vn -0.3010 -0.8967 -0.3246
vn -0.3360 -0.9348 0.1153
vn 0.0435 -0.9945 0.0950
vn -0.5192 -0.8252 0.2225
vn -0.6093 -0.7729 0.1770
vn -0.4966 -0.8551 0.1490
vn -0.4921 -0.8577 0.1487
vn -0.6216 -0.7619 0.1818
vn -0.6385 -0.7552 0.1484
vn -0.5390 -0.8297 0.1449
vn -0.8403 -0.5251 -0.1347
vn -0.9752 -0.2154 -0.0509
vn -0.9722 -0.2103 -0.1031
vn -0.6276 -0.7676 0.1300
vn -0.7604 -0.6390 0.1161
vn -0.8538 -0.5119 0.0950
vn -0.8727 -0.4807 0.0855
vn -0.7326 -0.6289 0.2604
vn -0.8375 -0.4050 0.3668
vn -0.6935 -0.6534 0.3035
vn -0.0887 -0.0003 0.9961
vn -0.7829 -0.5905 0.1959
vn -0.7707 -0.6046 0.2012
vn -0.7500 -0.6070 0.2628
vn -0.8045 -0.5087 0.3067
vn -0.8541 -0.4261 0.2982
vn -0.0871 -0.0009 0.9962
vn 0.6151 -0.6592 0.4326
vn 0.6677 -0.4964 0.5547
vn 0.6438 -0.3891 0.6589
vn -0.1838 -0.9570 0.2244
vn -0.2989 -0.9480 0.1091
vn 0.3217 -0.9305 0.1752
vn 0.3900 -0.8995 0.1972
vn 0.2764 -0.9516 0.1341
vn 0.2472 -0.9583 0.1434
vn 0.6008 -0.7125 0.3624
vn 0.5411 -0.7963 0.2704
vn 0.9974 -0.0390 0.0600
vn 0.9354 0.3476 -0.0642
vn 0.6074 0.7807 -0.1468
vn 0.6664 0.7343 -0.1294
vn 0.8560 0.5050 -0.1106
vn 0.8657 0.4267 -0.2617
vn 0.6900 0.5578 -0.4613
vn 0.9553 0.2347 0.1800
vn 0.9123 0.3956 0.1062
vn 0.6587 0.7514 -0.0401
vn 0.8886 0.4471 0.1021
vn -0.2597 0.9632 -0.0698
vn -0.2567 0.9650 -0.0537
vn -0.2598 0.9652 -0.0313
vn -0.2840 0.9586 -0.0202
vn -0.2348 0.9587 -0.1608
vn -0.2553 0.9622 -0.0944
vn -0.3528 0.9309 -0.0946
vn 0.3857 0.9098 -0.1533
vn 0.2582 0.9501 -0.1749
vn 0.6182 0.7847 -0.0455
vn 0.0859 0.9754 -0.2031
vn 0.0834 0.9760 -0.2013
vn 0.2599 0.9601 -0.1033
vn 0.2883 0.9541 -0.0811
vn -0.1577 0.9870 0.0316
vn -0.0124 0.9821 0.1882
vn 0.7274 -0.0940 -0.6798
vn 0.2537 -0.1615 -0.9537
vn 0.2845 -0.2494 -0.9257
vn 0.2267 -0.9637 -0.1409
vn 0.7971 -0.6032 -0.0291
vn 0.2407 -0.9705 -0.0149
vn 0.2568 -0.9664 0.0119
vn 0.3048 -0.9499 -0.0690
vn 0.2445 -0.9651 -0.0938
vn 0.1990 -0.9718 0.1268
vn 0.1712 -0.9779 0.1198
vn 0.2007 -0.9754 0.0907
vn -0.9484 0.1787 0.2619
vn -0.0887 -0.0001 0.9961
vn -0.8874 -0.2047 0.4132
vn -0.8805 -0.2285 0.4152
vn -0.8943 -0.0079 0.4474
vn -0.8897 0.0234 0.4560
vn -0.9659 0.1462 0.2138
vn -0.9815 -0.1579 0.1082
vn -0.9755 -0.1407 0.1691
vn 0.2257 0.4821 0.8465
vn 0.0230 0.2176 0.9758
vn -0.8738 0.2903 0.3900
vn -0.8895 0.3022 0.3426
vn -0.0888 0.0004 0.9960
vn -0.8342 0.3794 0.4002
vn -0.8041 0.4658 0.3694
vn -0.6719 0.6720 0.3114
vn -0.6486 0.6994 0.3002
vn -0.1675 0.0765 0.9829
vn -0.7082 0.5957 0.3790
vn -0.8503 0.4311 0.3018
vn -0.7887 0.5224 0.3241
vn -0.7413 0.6059 0.2887
vn -0.7318 0.6549 -0.1885
vn -0.8120 0.5837 -0.0062
vn -0.9747 0.1904 0.1174
vn -0.8052 0.5838 0.1044
vn -0.8517 0.4971 0.1657
vn -0.9801 0.1773 -0.0888
vn -0.9342 0.3502 -0.0677
vn -0.9999 -0.0102 0.0057
vn -0.0352 -0.1886 -0.9814
vn -0.0249 -0.1608 -0.9867
vn -0.2951 -0.3075 -0.9046
vn -0.2473 -0.1703 -0.9539
vn -0.2359 0.0152 -0.9717
vn -0.2855 -0.8038 -0.5219
vn -0.2791 -0.4880 -0.8270
vn -0.0476 -0.5563 -0.8296
vn -0.0234 0.8950 -0.4455
vn -0.0512 -0.9590 -0.2786
vn 0.1369 -0.9673 -0.2137
vn 0.0618 -0.9955 -0.0721
vn -0.2870 -0.9074 -0.3070
vn -0.1804 -0.9828 0.0394
vn -0.1189 -0.9893 0.0844
vn -0.1046 -0.9908 0.0858
vn -0.0755 -0.9771 -0.1988
vn -0.3440 -0.8791 -0.3298
vn -0.5492 -0.2234 -0.8052
vn -0.6645 -0.1082 -0.7394
vn -0.9813 -0.0786 -0.1755
vn -0.9005 -0.1020 -0.4227
vn -0.8730 -0.0713 -0.4825
vn -0.8751 -0.4719 0.1075
vn -0.8479 -0.5082 0.1513
vn 0.6667 -0.1363 0.7327
vn 0.6927 -0.1789 0.6987
vn 0.7583 0.1167 0.6414
vn 0.8495 -0.3256 0.4152
vn 0.8923 -0.1482 0.4264
vn -0.2175 -0.9717 0.0920
vn -0.1811 -0.9826 0.0412
vn -0.1770 -0.9803 0.0873
vn 0.1929 -0.8903 -0.4126
vn 0.2707 -0.5574 -0.7849
vn 0.2724 -0.5672 -0.7772
vn -0.0357 -0.6121 -0.7900
vn -0.0487 -0.9095 -0.4129
vn -0.0559 -0.8776 -0.4762
vn 0.5546 -0.7996 0.2303
vn 0.8399 -0.5422 0.0222
vn 0.9787 -0.1837 0.0918
vn 0.9818 0.0398 0.1857
vn 0.9644 0.1897 0.1844
vn 0.9283 -0.1871 0.3213
vn 0.9595 0.2743 -0.0636
vn 0.9922 0.1231 -0.0197
vn 0.8975 0.2054 -0.3903
vn 0.9187 0.2914 -0.2668
vn 0.6658 0.5828 -0.4659
vn 0.5871 0.7681 -0.2557
vn 0.1153 0.7035 -0.7013
vn 0.0605 0.7817 -0.6207
vn 0.0504 0.8276 -0.5590
vn 0.6782 0.6971 0.2325
vn 0.7239 0.6434 0.2489
vn 0.8908 0.4088 0.1983
vn 0.8760 0.4430 0.1905
vn 0.7866 0.5877 0.1896
vn 0.7904 0.5866 0.1768
vn 0.7723 -0.1328 -0.6212
vn 0.9469 -0.0226 -0.3208
vn 0.9016 0.0034 -0.4325
vn 0.8171 -0.5631 -0.1232
vn 0.6285 -0.6036 -0.4905
vn 0.6213 -0.4978 -0.6051
vn -0.4818 0.8690 0.1131
vn -0.4648 0.8823 0.0740
vn -0.4392 0.8981 -0.0223
vn -0.5075 0.8615 -0.0155
vn -0.7199 0.6565 0.2252
vn -0.7249 0.6735 0.1447
vn 0.2450 0.0269 -0.9691
vn 0.1668 0.4173 -0.8933
vn 0.1636 0.3586 -0.9190
vn 0.8316 0.1988 -0.5187
vn 0.7350 -0.0637 -0.6750
vn 0.4432 0.0970 -0.8912
vn 0.5560 0.3199 -0.7671
vn 0.7366 0.3316 -0.5895
vn 0.2235 0.9416 0.2518
vn 0.0211 0.9531 0.3018
vn 0.0705 0.6709 0.7382
vn 0.3258 0.9438 -0.0552
vn 0.3347 0.9415 -0.0387
vn 0.4157 0.9085 0.0429
vn 0.5954 0.7949 0.1169
vn 0.6188 0.7821 0.0729
vn 0.6159 0.7846 0.0706
vn 0.6693 0.5254 0.5254
vn 0.3436 0.2229 0.9123
vn 0.5556 0.2339 0.7979
vn -0.7790 0.5912 -0.2089
vn -0.8216 0.5327 -0.2027
vn -0.7445 0.5443 -0.3865
vn -0.9970 0.0601 0.0493
vn -0.9821 0.1782 0.0609
vn -1.0000 0.0003 0.0055
vn -0.9758 0.2124 -0.0527
vn -0.9495 0.3092 -0.0534
vn -0.9769 0.1910 -0.0957
vn -0.9013 0.3858 -0.1971
vn -0.9405 0.2599 -0.2188
vn -0.9605 0.1986 -0.1948
vn -0.8799 0.4523 -0.1457
vn -0.8571 0.4897 -0.1600
vn -0.9575 0.2639 -0.1165
vn -0.8960 0.4136 -0.1617
vn -0.9065 0.3911 -0.1592
vn -0.9999 -0.0116 -0.0096
vn -0.9906 0.1171 -0.0700
vn -0.9905 -0.1357 -0.0198
vn -0.9879 -0.1546 0.0077
vn -0.9785 -0.2038 0.0328
vn -0.9725 -0.2293 0.0414
vn -0.9635 -0.2598 0.0639
vn -0.9962 -0.0835 0.0241
vn -0.9727 -0.2147 0.0883
vn -0.9763 -0.1974 0.0892
vn -0.1657 0.2277 -0.9595
vn -0.0985 0.5981 -0.7954
vn -0.1161 0.5651 -0.8168
vn -0.0002 0.5967 -0.8024
vn 0.0183 0.3568 -0.9340
vn -0.0177 0.2259 -0.9740
vn -0.7224 0.0427 -0.6901
vn -0.6515 0.1192 -0.7492
vn -0.8169 0.1184 -0.5645
vn -0.8559 0.2830 -0.4327
vn -0.7702 0.4298 -0.4712
vn -0.6606 0.4069 -0.6308
vn -0.0732 -0.9964 0.0426
vn -0.0222 -0.9957 0.0898
vn -0.0862 -0.9925 0.0867
vn -0.0893 -0.9923 0.0863
vn -0.1352 -0.9889 0.0611
vn -0.1584 -0.9865 0.0418
vn -0.0903 -0.9704 -0.2240
vn -0.0797 -0.9711 -0.2251
vn -0.0787 -0.9734 -0.2151
vn 0.8867 -0.0630 0.4580
vn 0.8929 -0.1360 0.4291
vn 0.9076 0.2633 0.3271
vn 0.8920 0.1841 0.4127
vn 0.8901 0.1705 0.4227
vn 0.8026 -0.4981 0.3282
vn 0.7639 -0.5598 0.3210
vn 0.6830 -0.6737 0.2822
vn -0.9691 0.2450 0.0277
vn -0.8818 0.4716 -0.0076
vn -0.9492 0.3132 -0.0322
vn 0.8986 -0.3126 0.3079
vn 0.8085 -0.4903 0.3254
vn 0.9619 -0.1663 0.2171
vn 0.6641 -0.7074 0.2421
vn 0.8964 -0.3956 0.1999
vn 0.9031 -0.3680 0.2213
vn 0.7208 -0.6427 0.2595
vn 0.7162 -0.6496 0.2551
vn 0.7663 -0.5902 0.2540
vn 0.7486 -0.6174 0.2419
vn 0.8029 -0.5475 0.2356
vn 0.8076 -0.5384 0.2405
vn 0.7652 -0.5934 0.2497
vn 0.7729 -0.5832 0.2500
s 0
f 1//1 2//1 3//1
f 4//2 5//2 6//2
f 7//3 8//3 3//3
f 9//3 1//3 3//3
f 9//3 3//3 8//3
f 10//4 11//4 2//4
f 10//4 2//4 1//4
f 12//5 1//5 9//5
f 12//5 9//5 8//5
f 12//5 8//5 13//5
f 14//6 12//6 15//6
f 14//5 1//5 12//5
f 16//7 14//7 17//7
f 16//8 1//8 14//8
f 18//9 19//9 20//9
f 18//10 20//10 21//10
f 22//11 19//11 18//11
f 23//12 24//12 25//12
f 26//13 27//13 28//13
f 29//14 2//14 11//14
f 30//15 31//15 3//15
f 32//16 2//16 33//16
f 32//17 34//17 30//17
f 32//18 30//18 3//18
f 32//18 3//18 2//18
f 35//19 30//19 34//19
f 35//20 31//20 30//20
f 36//21 21//21 20//21
f 36//22 20//22 37//22
f 36//23 37//23 38//23
f 36//24 38//24 39//24
f 36//25 40//25 21//25
f 36//26 39//26 40//26
f 41//27 20//27 19//27
f 42//28 6//28 5//28
f 42//29 5//29 43//29
f 42//30 13//30 6//30
f 44//31 24//31 15//31
f 45//32 13//32 8//32
f 45//33 46//33 47//33
f 45//34 47//34 6//34
f 45//35 6//35 13//35
f 45//36 48//36 46//36
f 49//37 47//37 46//37
f 49//38 6//38 47//38
f 50//39 4//39 6//39
f 50//40 51//40 52//40
f 50//41 52//41 4//41
f 50//42 6//42 49//42
f 50//43 49//43 46//43
f 53//44 50//44 46//44
f 53//45 51//45 50//45
f 54//46 48//46 45//46
f 54//47 7//47 28//47
f 54//48 45//48 8//48
f 54//49 8//49 7//49
f 55//50 27//50 46//50
f 55//51 46//51 48//51
f 55//52 48//52 54//52
f 55//53 54//53 28//53
f 55//54 28//54 27//54
f 56//55 10//55 1//55
f 56//56 1//56 57//56
f 58//57 56//57 57//57
f 58//58 10//58 56//58
f 59//59 12//59 13//59
f 59//60 13//60 42//60
f 60//61 14//61 15//61
f 60//62 17//62 14//62
f 60//63 61//63 17//63
f 60//64 15//64 61//64
f 62//65 57//65 1//65
f 62//66 1//66 16//66
f 63//67 64//67 65//67
f 66//68 67//68 65//68
f 68//69 19//69 69//69
f 68//70 69//70 67//70
f 68//71 67//71 66//71
f 68//72 66//72 70//72
f 68//73 70//73 71//73
f 72//74 73//74 65//74
f 72//75 65//75 67//75
f 74//76 67//76 69//76
f 74//77 72//77 67//77
f 75//78 18//78 34//78
f 75//79 33//79 18//79
f 75//80 32//80 33//80
f 75//81 34//81 32//81
f 76//82 18//82 21//82
f 76//83 34//83 18//83
f 76//84 21//84 40//84
f 77//85 69//85 19//85
f 77//86 19//86 22//86
f 77//87 74//87 69//87
f 78//88 22//88 18//88
f 78//89 18//89 33//89
f 78//90 77//90 22//90
f 78//91 79//91 77//91
f 78//92 33//92 2//92
f 78//93 2//93 79//93
f 80//94 81//94 82//94
f 80//95 83//95 84//95
f 80//96 82//96 83//96
f 85//97 24//97 23//97
f 85//98 64//98 17//98
f 86//99 61//99 24//99
f 86//100 17//100 61//100
f 86//101 85//101 17//101
f 86//102 24//102 85//102
f 87//103 61//103 15//103
f 87//104 15//104 24//104
f 87//105 24//105 61//105
f 88//106 89//106 26//106
f 90//107 7//107 3//107
f 90//108 26//108 28//108
f 90//109 28//109 7//109
f 90//110 88//110 26//110
f 90//111 3//111 88//111
f 91//112 26//112 89//112
f 91//113 92//113 27//113
f 91//114 27//114 26//114
f 93//115 29//115 94//115
f 93//116 2//116 29//116
f 95//117 88//117 3//117
f 95//118 89//118 88//118
f 96//119 3//119 31//119
f 96//120 95//120 3//120
f 96//121 97//121 95//121
f 98//122 35//122 97//122
f 98//123 31//123 35//123
f 98//124 96//124 31//124
f 98//125 97//125 96//125
f 99//126 89//126 95//126
f 99//127 95//127 97//127
f 99//128 97//128 35//128
f 100//129 37//129 20//129
f 101//130 39//130 38//130
f 101//131 91//131 89//131
f 101//132 99//132 39//132
f 101//133 89//133 99//133
f 102//134 52//134 103//134
f 102//135 38//135 37//135
f 104//136 92//136 103//136
f 105//137 83//137 106//137
f 105//138 84//138 83//138
f 107//139 106//139 5//139
f 107//140 105//140 106//140
f 107//141 108//141 105//141
f 109//142 43//142 5//142
f 109//143 5//143 106//143
f 109//144 106//144 83//144
f 110//145 20//145 41//145
f 111//146 43//146 25//146
f 111//147 25//147 24//147
f 111//148 24//148 44//148
f 112//149 42//149 43//149
f 112//150 113//150 42//150
f 114//151 59//151 113//151
f 114//152 12//152 59//152
f 114//153 111//153 44//153
f 115//154 5//154 4//154
f 115//155 107//155 5//155
f 115//156 116//156 107//156
f 117//157 4//157 52//157
f 117//158 115//158 4//158
f 117//159 116//159 115//159
f 118//160 53//160 46//160
f 118//161 46//161 27//161
f 119//162 11//162 10//162
f 119//163 10//163 58//163
f 119//164 120//164 11//164
f 121//165 58//165 57//165
f 121//166 73//166 58//166
f 122//167 59//167 42//167
f 122//168 42//168 113//168
f 122//169 113//169 59//169
f 123//170 23//170 25//170
f 123//171 83//171 82//171
f 123//172 82//172 23//172
f 123//173 109//173 83//173
f 123//174 25//174 43//174
f 123//175 43//175 109//175
f 124//176 16//176 17//176
f 124//177 17//177 64//177
f 124//178 64//178 63//178
f 125//179 63//179 65//179
f 125//180 65//180 73//180
f 125//181 73//181 121//181
f 126//182 66//182 65//182
f 126//183 65//183 64//183
f 126//184 81//184 70//184
f 126//185 70//185 66//185
f 127//186 68//186 71//186
f 127//187 19//187 68//187
f 127//188 71//188 128//188
f 127//189 128//189 41//189
f 127//190 41//190 19//190
f 129//191 94//191 29//191
f 129//192 29//192 120//192
f 130//193 73//193 72//193
f 130//194 72//194 74//194
f 130//195 129//195 120//195
f 130//196 74//196 129//196
f 131//197 82//197 81//197
f 131//198 126//198 64//198
f 131//199 81//199 126//199
f 131//200 64//200 85//200
f 131//201 85//201 23//201
f 131//202 23//202 82//202
f 132//203 35//203 34//203
f 132//204 34//204 76//204
f 132//205 76//205 40//205
f 132//206 40//206 39//206
f 132//207 99//207 35//207
f 132//208 39//208 99//208
f 133//209 80//209 84//209
f 133//210 128//210 71//210
f 133//211 84//211 128//211
f 134//212 70//212 81//212
f 134//213 81//213 80//213
f 134//214 80//214 133//214
f 134//215 133//215 71//215
f 134//216 71//216 70//216
f 135//217 93//217 79//217
f 135//218 79//218 2//218
f 135//219 2//219 93//219
f 136//220 77//220 79//220
f 136//221 79//221 93//221
f 136//222 93//222 94//222
f 136//223 94//223 129//223
f 136//224 129//224 74//224
f 136//225 74//225 77//225
f 137//226 120//226 29//226
f 137//227 29//227 11//227
f 137//228 11//228 120//228
f 138//229 100//229 20//229
f 138//230 139//230 100//230
f 138//231 20//231 110//231
f 140//232 92//232 91//232
f 140//233 91//233 101//233
f 140//234 103//234 92//234
f 140//235 102//235 103//235
f 140//236 38//236 102//236
f 141//237 52//237 102//237
f 141//238 139//238 138//238
f 141//239 138//239 117//239
f 141//240 117//240 52//240
f 142//241 102//241 37//241
f 142//242 37//242 100//242
f 142//243 141//243 102//243
f 142//244 100//244 139//244
f 142//245 139//245 141//245
f 143//246 104//246 103//246
f 143//247 103//247 52//247
f 143//248 52//248 51//248
f 143//249 51//249 104//249
f 144//250 104//250 51//250
f 144//251 51//251 53//251
f 144//252 53//252 118//252
f 144//253 92//253 104//253
f 144//254 118//254 27//254
f 144//255 27//255 92//255
f 145//256 105//256 108//256
f 145//257 110//257 41//257
f 145//258 108//258 110//258
f 145//259 41//259 128//259
f 145//260 128//260 84//260
f 145//261 84//261 105//261
f 146//262 107//262 116//262
f 146//263 108//263 107//263
f 146//264 116//264 117//264
f 146//265 117//265 138//265
f 146//266 138//266 110//266
f 146//267 110//267 108//267
f 147//268 114//268 44//268
f 147//269 44//269 15//269
f 147//270 15//270 12//270
f 147//271 12//271 114//271
f 148//272 114//272 113//272
f 148//273 113//273 112//273
f 148//274 112//274 43//274
f 148//275 43//275 111//275
f 148//276 111//276 114//276
f 149//277 119//277 58//277
f 149//278 58//278 73//278
f 149//279 73//279 130//279
f 149//280 130//280 120//280
f 149//281 120//281 119//281
f 150//282 121//282 57//282
f 150//283 57//283 62//283
f 150//284 62//284 16//284
f 151//285 140//285 101//285
f 151//286 101//286 38//286
f 151//287 38//287 140//287
f 152//288 125//288 121//288
f 152//289 121//289 150//289
f 152//290 63//290 125//290
f 153//291 16//291 124//291
f 154//292 124//292 63//292
f 154//293 63//293 152//293
f 155//294 150//294 16//294
f 155//295 16//295 153//295
f 155//296 152//296 150//296
f 156//297 153//297 124//297
f 156//298 124//298 154//298
f 156//299 154//299 152//299
f 156//300 155//300 153//300
f 156//301 152//301 155//301
