# Blender 4.0.2
# www.blender.org
mtllib palm_hull.mtl
o palm_hull
v 0.055325 0.008665 -0.004356
v 0.057174 0.007684 -0.004951
v 0.052084 -0.002562 -0.065767
v 0.057829 -0.022476 -0.066029
v 0.056944 -0.026478 -0.055944
v 0.053465 -0.022346 -0.070927
v 0.029174 0.018573 0.016528
v -0.009985 -0.002997 -0.065882
v 0.001714 0.009226 -0.016751
v -0.014055 -0.006235 -0.066265
v -0.011511 0.001000 -0.038317
v -0.012141 -0.009299 -0.072833
v -0.015022 -0.010396 -0.069850
v -0.008087 -0.019021 -0.005491
v -0.016167 -0.027582 -0.054666
v 0.015602 -0.022893 0.029567
v -0.010272 -0.027775 -0.043886
v 0.021802 -0.025142 0.029005
v 0.011661 -0.020416 0.029918
v 0.007607 -0.016397 0.030276
v -0.002365 -0.012936 0.021369
v 0.029651 -0.024520 0.028319
v 0.037415 -0.023191 0.027629
v 0.045242 -0.018454 0.026935
v 0.006687 0.010632 0.029616
v 0.002083 -0.001174 0.030766
v 0.029117 0.018601 0.028367
v 0.030077 -0.006213 -0.074257
v 0.052106 -0.014606 -0.074001
v 0.031017 -0.023354 -0.077906
v 0.030594 -0.016427 -0.079253
v 0.008922 -0.024344 -0.078510
v 0.008759 -0.016816 -0.079741
v 0.051043 -0.009961 -0.074186
v 0.061977 -0.005754 -0.023137
v 0.061030 -0.014761 -0.051582
v 0.060990 -0.002128 -0.026783
v 0.060176 0.000928 -0.022217
v 0.003996 -0.032641 -0.057668
v -0.013355 -0.026914 -0.068915
v 0.008104 -0.029984 -0.072323
v 0.014680 -0.033219 -0.058836
v -0.004933 0.007436 -0.016665
v 0.023934 0.019582 0.023592
v 0.027891 0.019080 0.019520
v 0.021584 0.019099 0.026266
v -0.015627 -0.002553 -0.037285
v -0.016555 -0.010010 -0.064151
v -0.018263 -0.009233 -0.035043
v -0.011271 -0.004858 -0.068522
v -0.001890 -0.009322 0.025175
v 0.003558 -0.009087 0.030636
v -0.003074 -0.015248 0.015650
v -0.017772 -0.015676 -0.031066
v -0.019405 -0.022904 -0.062937
v -0.016423 -0.026735 -0.065204
v 0.047567 -0.018380 0.021779
v 0.056730 -0.019105 -0.012919
v 0.058536 -0.016957 -0.009757
v 0.057938 -0.020208 -0.023731
v 0.058885 -0.024287 -0.052378
v 0.060673 -0.018958 -0.040666
v 0.018184 -0.032800 -0.055053
v 0.037092 -0.018077 0.027659
v 0.052282 0.000724 0.026311
v 0.061345 -0.003074 0.004227
v 0.060090 -0.009681 0.005971
v 0.061870 -0.005260 -0.003731
v 0.059921 -0.004250 0.011466
v 0.061712 -0.009118 -0.010527
v 0.060650 -0.015167 -0.019110
v 0.049882 -0.013719 0.026522
v 0.057608 0.006110 0.008379
v 0.053782 0.010098 0.008986
v 0.051879 0.010523 0.013830
v 0.053105 -0.027866 -0.056009
v 0.033201 -0.028649 -0.072304
v 0.011837 -0.032824 -0.061861
v 0.032084 -0.027063 -0.075358
v 0.016101 0.017236 0.028365
v 0.010314 0.014590 0.028329
v 0.043539 0.012566 0.027086
v 0.039152 0.015400 0.027476
v 0.049746 0.006066 0.026535
v 0.033019 0.017976 0.028020
v 0.054279 0.009674 0.001677
v 0.045888 0.013861 0.013705
v 0.051299 -0.005009 -0.070724
v 0.056362 -0.007986 -0.065164
v 0.009103 -0.010183 -0.077214
v 0.008204 -0.028680 -0.075182
v -0.013977 -0.022390 -0.071999
v 0.056512 -0.021885 -0.068976
v 0.030421 -0.011352 -0.078078
v 0.061895 -0.001750 -0.008514
v 0.060252 0.003486 0.002664
v 0.060017 -0.009287 -0.050997
v 0.058213 -0.016032 -0.066764
v 0.058748 -0.004152 -0.045416
v 0.060111 0.003553 -0.009543
v -0.007810 -0.029783 -0.053058
v 0.003275 0.010560 0.019877
v 0.000776 0.004536 0.028182
v -0.010374 0.003157 -0.016563
v -0.018740 -0.017908 -0.065254
v -0.013356 -0.013685 -0.073782
v -0.007822 -0.009963 0.012537
v -0.008818 -0.006587 0.011627
v -0.001170 -0.003581 0.027358
v -0.010994 -0.009749 0.003496
v -0.017740 -0.024924 -0.049224
v -0.018199 -0.023891 -0.066429
v -0.013276 -0.028373 -0.056545
v 0.055168 -0.015786 0.006663
v 0.035034 -0.024224 0.025172
v 0.032112 -0.031707 -0.059494
v 0.058981 -0.002070 0.013384
v 0.052483 -0.006566 0.026292
v 0.051320 -0.010863 0.026395
v 0.059912 0.002707 0.006751
v 0.061931 -0.010035 -0.022753
v 0.060506 -0.012112 -0.004526
v 0.051486 0.007794 0.020567
v 0.056903 0.008142 0.002456
v 0.006541 0.013384 0.017315
v 0.021294 0.018690 0.027539
v 0.003266 0.006570 0.029320
v 0.047704 0.013123 0.011096
v 0.037102 0.016560 0.018260
v 0.054051 -0.011061 -0.071746
v -0.011837 -0.012564 -0.074415
v 0.060453 -0.003526 -0.034365
v 0.058649 -0.006217 -0.051242
v 0.060601 0.002742 -0.002974
v -0.000251 -0.031356 -0.053254
v -0.002447 0.002122 0.022293
v -0.013003 -0.002099 -0.016433
v -0.016362 -0.016922 -0.070203
v -0.012772 -0.015384 -0.074257
v -0.009120 -0.014872 0.001914
v -0.006819 -0.005351 0.016178
v 0.058919 -0.010517 0.008128
v 0.044850 -0.029129 -0.049836
v 0.039635 -0.030108 -0.050259
v 0.027754 -0.032250 -0.058633
v 0.038598 -0.030734 -0.061097
v 0.057512 -0.009043 0.014265
v 0.056615 0.004039 0.014138
v 0.061791 -0.011561 -0.035476
v 0.045730 0.010631 0.026864
v 0.056519 -0.017746 -0.069576
v -0.011576 -0.013273 -0.001778
v -0.012266 -0.019731 -0.019032
v -0.015647 -0.018388 -0.026904
v -0.010974 -0.017766 -0.010401
v -0.013766 -0.019478 -0.023028
vn 0.4132 0.8917 -0.1848
vn 0.3350 -0.8855 -0.3220
vn -0.0063 0.9681 -0.2504
vn -0.0531 0.9719 -0.2292
vn 0.2143 0.9588 -0.1866
vn -0.6074 0.7807 -0.1468
vn -0.6900 0.5578 -0.4613
vn -0.4736 -0.8513 0.2260
vn -0.3900 -0.8995 0.1972
vn -0.3217 -0.9305 0.1752
vn -0.6151 -0.6592 0.4326
vn -0.5000 -0.8303 0.2461
vn 0.0877 -0.0073 0.9961
vn 0.0885 -0.0002 0.9961
vn 0.0243 0.0876 0.9959
vn -0.0058 0.9240 -0.3824
vn 0.2951 -0.3075 -0.9046
vn 0.0249 -0.1608 -0.9867
vn 0.0352 -0.1886 -0.9814
vn 0.2473 -0.1703 -0.9539
vn 0.2359 0.0152 -0.9717
vn 0.9801 0.1773 -0.0888
vn 0.6437 0.7440 -0.1792
vn -0.1726 -0.9596 -0.2223
vn -0.0435 -0.9945 0.0950
vn -0.2582 0.9501 -0.1749
vn -0.3857 0.9098 -0.1533
vn -0.0859 0.9754 -0.2031
vn -0.0834 0.9760 -0.2013
vn 0.0124 0.9821 0.1882
vn 0.1577 0.9870 0.0316
vn -0.2883 0.9541 -0.0811
vn -0.2599 0.9601 -0.1033
vn -0.6664 0.7343 -0.1294
vn -0.8657 0.4267 -0.2617
vn -0.8560 0.5050 -0.1106
vn -0.9354 0.3476 -0.0642
vn -0.6658 0.5828 -0.4659
vn -0.5871 0.7681 -0.2557
vn -0.0504 0.8276 -0.5590
vn -0.6677 -0.4964 0.5547
vn 0.0884 0.0001 0.9961
vn 0.0871 -0.0009 0.9962
vn -0.6438 -0.3891 0.6589
vn -0.6008 -0.7125 0.3624
vn -0.5411 -0.7963 0.2704
vn -0.9974 -0.0390 0.0600
vn -0.7971 -0.6032 -0.0291
vn -0.2267 -0.9637 -0.1409
vn 0.4966 -0.8551 0.1490
vn 0.6093 -0.7729 0.1770
vn 0.5192 -0.8252 0.2225
vn 0.4921 -0.8577 0.1487
vn 0.5390 -0.8297 0.1449
vn 0.6385 -0.7552 0.1484
vn 0.9722 -0.2103 -0.1031
vn 0.9752 -0.2154 -0.0509
vn 0.8403 -0.5251 -0.1347
vn 0.6276 -0.7676 0.1300
vn 0.7604 -0.6390 0.1161
vn 0.0862 -0.9925 0.0867
vn 0.0222 -0.9957 0.0898
vn 0.0885 -0.0001 0.9961
vn 0.0884 -0.0000 0.9961
vn 0.9815 -0.1579 0.1082
vn 0.9755 -0.1407 0.1691
vn 0.9763 -0.1974 0.0892
vn 0.8727 -0.4807 0.0855
vn 0.8538 -0.5119 0.0950
vn 0.9725 -0.2293 0.0414
vn 0.6935 -0.6534 0.3035
vn 0.7199 0.6565 0.2252
vn 0.3010 -0.8967 -0.3246
vn 0.3269 -0.8889 -0.3211
vn 0.3360 -0.9348 0.1153
vn 0.0512 -0.9590 -0.2786
vn -0.1369 -0.9673 -0.2137
vn -0.0618 -0.9955 -0.0721
vn 0.2791 -0.4880 -0.8270
vn 0.2855 -0.8038 -0.5219
vn 0.0476 -0.5563 -0.8296
vn -0.0230 0.2176 0.9758
vn -0.2257 0.4821 0.8465
vn 0.5431 0.8112 0.2166
vn 0.0888 0.0004 0.9960
vn 0.0886 0.0002 0.9961
vn 0.1608 0.9865 0.0311
vn 0.0885 0.0001 0.9961
vn 0.4492 0.8906 -0.0711
vn 0.4799 0.8664 0.1379
vn 0.4818 0.8690 0.1131
vn 0.3925 0.9154 0.0897
vn 0.0234 0.8950 -0.4455
vn 0.7445 0.5443 -0.3865
vn -0.0605 0.7817 -0.6207
vn -0.1153 0.7035 -0.7013
vn -0.1929 -0.8903 -0.4126
vn 0.0357 -0.6121 -0.7900
vn -0.2707 -0.5574 -0.7849
vn -0.2724 -0.5672 -0.7772
vn 0.0559 -0.8776 -0.4762
vn 0.0487 -0.9095 -0.4129
vn 0.3440 -0.8791 -0.3298
vn 0.5492 -0.2234 -0.8052
vn 0.1657 0.2277 -0.9595
vn 0.0002 0.5967 -0.8024
vn 0.1161 0.5651 -0.8168
vn 0.0985 0.5981 -0.7954
vn 0.0177 0.2259 -0.9740
vn -0.0183 0.3568 -0.9340
vn 1.0000 0.0003 0.0055
vn 0.9758 0.2124 -0.0527
vn 0.9970 0.0601 0.0493
vn 0.9821 0.1782 0.0609
vn 0.9769 0.1910 -0.0957
vn 0.9813 -0.0786 -0.1755
vn 0.9605 0.1986 -0.1948
vn 0.9405 0.2599 -0.2188
vn 0.9005 -0.1020 -0.4227
vn 0.7790 0.5912 -0.2089
vn 0.7318 0.6549 -0.1885
vn 0.7307 0.6693 -0.1349
vn 0.9495 0.3092 -0.0534
vn 0.9342 0.3502 -0.0677
vn -0.2764 -0.9516 0.1341
vn -0.2472 -0.9583 0.1434
vn -0.6782 0.6971 0.2325
vn -0.7239 0.6434 0.2489
vn -0.6182 0.7847 -0.0455
vn -0.6587 0.7514 -0.0401
vn -0.9922 0.1231 -0.0197
vn -0.9595 0.2743 -0.0636
vn -0.9187 0.2914 -0.2668
vn -0.7366 0.3316 -0.5895
vn -0.8923 -0.1482 0.4264
vn -0.8495 -0.3256 0.4152
vn -0.6667 -0.1363 0.7327
vn -0.6927 -0.1789 0.6987
vn -0.7583 0.1167 0.6414
vn -0.9644 0.1897 0.1844
vn -0.9818 0.0398 0.1857
vn -0.9283 -0.1871 0.3213
vn -0.9787 -0.1837 0.0918
vn -0.8399 -0.5422 0.0222
vn -0.5546 -0.7996 0.2303
vn -0.6213 -0.4978 -0.6051
vn -0.6285 -0.6036 -0.4905
vn -0.8171 -0.5631 -0.1232
vn -0.9469 -0.0226 -0.3208
vn -0.2445 -0.9651 -0.0938
vn -0.3048 -0.9499 -0.0690
vn -0.2568 -0.9664 0.0119
vn -0.2407 -0.9705 -0.0149
vn 0.6216 -0.7619 0.1818
vn 0.7326 -0.6289 0.2604
vn 0.1838 -0.9570 0.2244
vn 0.2989 -0.9480 0.1091
vn 0.0797 -0.9711 -0.2251
vn 0.8897 0.0234 0.4560
vn 0.8943 -0.0079 0.4474
vn 0.0887 -0.0001 0.9961
vn 0.0887 -0.0003 0.9961
vn 0.9747 0.1904 0.1174
vn 0.9659 0.1462 0.2138
vn 0.9484 0.1787 0.2619
vn 0.8517 0.4971 0.1657
vn 0.9999 -0.0102 0.0057
vn 0.9962 -0.0835 0.0241
vn 0.9785 -0.2038 0.0328
vn 0.8479 -0.5082 0.1513
vn 0.8751 -0.4719 0.1075
vn 0.9635 -0.2598 0.0639
vn 0.9727 -0.2147 0.0883
vn 0.7413 0.6059 0.2887
vn 0.8052 0.5838 0.1044
vn 0.8117 0.5840 -0.0063
vn 0.8120 0.5837 -0.0062
vn 0.7249 0.6735 0.1447
vn 0.5075 0.8615 -0.0155
vn 0.5114 0.8586 -0.0343
vn -0.4157 0.9085 0.0429
vn -0.3347 0.9415 -0.0387
vn -0.3258 0.9438 -0.0552
vn -0.5954 0.7949 0.1169
vn -0.6188 0.7821 0.0729
vn -0.6159 0.7846 0.0706
vn -0.0705 0.6709 0.7382
vn -0.0211 0.9531 0.3018
vn -0.2235 0.9416 0.2518
vn -0.5556 0.2339 0.7979
vn -0.3436 0.2229 0.9123
vn -0.6693 0.5254 0.5254
vn 0.4648 0.8823 0.0740
vn 0.4392 0.8981 -0.0223
vn 0.3528 0.9309 -0.0946
vn 0.2348 0.9587 -0.1608
vn 0.2553 0.9622 -0.0944
vn 0.2597 0.9632 -0.0698
vn 0.2567 0.9650 -0.0537
vn 0.2598 0.9652 -0.0313
vn 0.2840 0.9586 -0.0202
vn 0.7702 0.4298 -0.4712
vn 0.6606 0.4069 -0.6308
vn 0.8559 0.2830 -0.4327
vn 0.6515 0.1192 -0.7492
vn -0.1636 0.3586 -0.9190
vn -0.1668 0.4173 -0.8933
vn -0.5560 0.3199 -0.7671
vn 0.8571 0.4897 -0.1600
vn 0.8799 0.4523 -0.1457
vn 0.9575 0.2639 -0.1165
vn 0.9013 0.3858 -0.1971
vn 0.8216 0.5327 -0.2027
vn 0.9065 0.3911 -0.1592
vn 0.8960 0.4136 -0.1617
vn 0.8818 0.4716 -0.0076
vn 0.9691 0.2450 0.0277
vn 0.9492 0.3132 -0.0322
vn -0.2007 -0.9754 0.0907
vn -0.1712 -0.9779 0.1198
vn -0.1990 -0.9718 0.1268
vn -0.7866 0.5877 0.1896
vn -0.7904 0.5866 0.1768
vn -0.8886 0.4471 0.1021
vn -0.9123 0.3956 0.1062
vn -0.9553 0.2347 0.1800
vn -0.8760 0.4430 0.1905
vn -0.8908 0.4088 0.1983
vn -0.8975 0.2054 -0.3903
vn -0.8316 0.1988 -0.5187
vn -0.9016 0.0034 -0.4325
vn -0.7723 -0.1328 -0.6212
vn -0.2537 -0.1615 -0.9537
vn -0.2450 0.0269 -0.9691
vn -0.4432 0.0970 -0.8912
vn -0.2845 -0.2494 -0.9257
vn -0.7350 -0.0637 -0.6750
vn -0.7274 -0.0940 -0.6798
vn -0.7639 -0.5598 0.3210
vn -0.8026 -0.4981 0.3282
vn -0.6830 -0.6737 0.2822
vn -0.8929 -0.1360 0.4291
vn -0.8867 -0.0630 0.4580
vn -0.9076 0.2633 0.3271
vn -0.8901 0.1705 0.4227
vn -0.8920 0.1841 0.4127
vn 0.7707 -0.6046 0.2012
vn 0.7829 -0.5905 0.1959
vn 0.7500 -0.6070 0.2628
vn 0.1770 -0.9803 0.0873
vn 0.1811 -0.9826 0.0412
vn 0.2175 -0.9717 0.0920
vn 0.1046 -0.9908 0.0858
vn 0.0893 -0.9923 0.0863
vn 0.1352 -0.9889 0.0611
vn 0.1189 -0.9893 0.0844
vn 0.0732 -0.9964 0.0426
vn 0.0755 -0.9771 -0.1988
vn 0.0787 -0.9734 -0.2151
vn 0.1804 -0.9828 0.0394
vn 0.1584 -0.9865 0.0418
vn 0.0903 -0.9704 -0.2240
vn 0.2870 -0.9074 -0.3070
vn 0.8874 -0.2047 0.4132
vn 0.8805 -0.2285 0.4152
vn 0.8541 -0.4261 0.2982
vn 0.9105 -0.2798 0.3045
vn 0.8375 -0.4050 0.3668
vn 0.8045 -0.5087 0.3067
vn 0.8738 0.2903 0.3900
vn 0.8895 0.3022 0.3426
vn 0.8342 0.3794 0.4002
vn 0.8503 0.4311 0.3018
vn 0.8041 0.4658 0.3694
vn 0.7887 0.5224 0.3241
vn 0.9906 0.1171 -0.0700
vn 0.9999 -0.0116 -0.0096
vn 0.9879 -0.1546 0.0077
vn 0.9905 -0.1357 -0.0198
vn 0.1675 0.0765 0.9829
vn 0.7082 0.5957 0.3790
vn 0.6719 0.6720 0.3114
vn 0.6486 0.6994 0.3002
vn 0.8169 0.1184 -0.5645
vn 0.8730 -0.0713 -0.4825
vn 0.6645 -0.1082 -0.7394
vn 0.7224 0.0427 -0.6901
vn -0.8085 -0.4903 0.3254
vn -0.8986 -0.3126 0.3079
vn -0.9619 -0.1663 0.2171
vn -0.6641 -0.7074 0.2421
vn -0.9031 -0.3680 0.2213
vn -0.8964 -0.3956 0.1999
vn -0.7162 -0.6496 0.2551
vn -0.7208 -0.6427 0.2595
vn -0.7663 -0.5902 0.2540
vn -0.8076 -0.5384 0.2405
vn -0.8029 -0.5475 0.2356
vn -0.7486 -0.6174 0.2419
vn -0.7729 -0.5832 0.2500
vn -0.7652 -0.5934 0.2497
s 0
f 1//1 2//1 3//1
f 4//2 5//2 6//2
f 7//3 3//3 8//3
f 7//4 8//4 9//4
f 7//5 1//5 3//5
f 10//6 11//6 8//6
f 12//7 13//7 10//7
f 14//8 15//8 16//8
f 17//9 16//9 15//9
f 17//10 18//10 16//10
f 19//11 20//11 21//11
f 19//12 14//12 16//12
f 22//13 16//13 18//13
f 22//14 19//14 16//14
f 22//14 23//14 24//14
f 25//15 26//15 27//15
f 28//16 8//16 3//16
f 29//17 6//17 30//17
f 31//18 32//18 33//18
f 31//19 30//19 32//19
f 31//20 29//20 30//20
f 31//21 34//21 29//21
f 35//22 36//22 37//22
f 38//23 3//23 2//23
f 39//24 40//24 41//24
f 39//25 42//25 18//25
f 43//26 9//26 8//26
f 43//27 8//27 11//27
f 44//28 7//28 9//28
f 44//29 45//29 7//29
f 44//30 46//30 27//30
f 44//31 27//31 45//31
f 44//32 43//32 46//32
f 44//33 9//33 43//33
f 47//34 11//34 10//34
f 48//35 10//35 13//35
f 48//36 47//36 10//36
f 48//37 49//37 47//37
f 50//38 12//38 10//38
f 50//39 10//39 8//39
f 50//40 8//40 28//40
f 51//41 21//41 20//41
f 52//42 19//42 27//42
f 52//42 27//42 26//42
f 52//43 20//43 19//43
f 52//44 51//44 20//44
f 53//45 19//45 21//45
f 53//46 14//46 19//46
f 54//47 49//47 55//47
f 56//48 15//48 55//48
f 56//49 40//49 39//49
f 57//50 5//50 58//50
f 57//51 58//51 59//51
f 57//52 24//52 23//52
f 57//53 23//53 5//53
f 60//54 58//54 5//54
f 60//55 59//55 58//55
f 61//56 4//56 36//56
f 61//57 36//57 62//57
f 61//58 5//58 4//58
f 61//59 60//59 5//59
f 61//60 59//60 60//60
f 63//61 22//61 18//61
f 63//62 18//62 42//62
f 64//14 22//14 24//14
f 64//14 19//14 22//14
f 65//63 19//63 64//63
f 65//64 27//64 19//64
f 65//63 64//63 24//63
f 66//65 67//65 68//65
f 66//66 69//66 67//66
f 70//67 68//67 67//67
f 71//68 61//68 62//68
f 71//69 59//69 61//69
f 71//70 62//70 70//70
f 72//71 24//71 57//71
f 73//72 74//72 75//72
f 76//73 77//73 6//73
f 76//74 6//74 5//74
f 76//75 5//75 23//75
f 78//76 41//76 77//76
f 78//77 39//77 41//77
f 78//78 42//78 39//78
f 79//79 30//79 6//79
f 79//80 6//80 77//80
f 79//81 32//81 30//81
f 80//82 25//82 27//82
f 80//83 81//83 25//83
f 82//84 75//84 83//84
f 82//85 65//85 84//85
f 82//86 83//86 65//86
f 85//87 45//87 27//87
f 85//88 65//88 83//88
f 85//88 27//88 65//88
f 86//89 2//89 1//89
f 87//90 83//90 75//90
f 87//91 75//91 74//91
f 87//92 85//92 83//92
f 88//93 28//93 3//93
f 88//94 3//94 89//94
f 90//95 50//95 28//95
f 90//96 12//96 50//96
f 91//97 41//97 40//97
f 91//98 32//98 79//98
f 91//99 92//99 32//99
f 91//100 40//100 92//100
f 91//101 79//101 77//101
f 91//102 77//102 41//102
f 93//103 4//103 6//103
f 93//104 6//104 29//104
f 94//105 34//105 31//105
f 94//106 90//106 28//106
f 94//107 88//107 34//107
f 94//108 28//108 88//108
f 94//109 31//109 33//109
f 94//110 33//110 90//110
f 95//111 68//111 35//111
f 95//112 35//112 37//112
f 95//113 66//113 68//113
f 95//114 96//114 66//114
f 97//115 37//115 36//115
f 98//116 36//116 4//116
f 98//117 97//117 36//117
f 98//118 89//118 97//118
f 98//119 4//119 93//119
f 99//120 89//120 3//120
f 99//121 3//121 38//121
f 100//122 38//122 2//122
f 100//123 95//123 37//123
f 100//124 37//124 38//124
f 101//125 17//125 15//125
f 101//126 18//126 17//126
f 102//127 25//127 81//127
f 102//128 103//128 25//128
f 104//129 43//129 11//129
f 104//130 11//130 47//130
f 105//131 55//131 49//131
f 105//132 49//132 48//132
f 105//133 48//133 13//133
f 106//134 13//134 12//134
f 107//135 51//135 108//135
f 107//136 21//136 51//136
f 109//137 52//137 26//137
f 109//138 51//138 52//138
f 109//139 26//139 103//139
f 110//140 108//140 49//140
f 110//141 49//141 54//141
f 110//142 107//142 108//142
f 111//143 54//143 55//143
f 111//144 55//144 15//144
f 111//145 15//145 14//145
f 112//146 92//146 40//146
f 112//147 40//147 56//147
f 112//148 56//148 55//148
f 112//149 55//149 105//149
f 113//150 56//150 39//150
f 113//151 15//151 56//151
f 113//152 101//152 15//152
f 113//153 39//153 101//153
f 114//154 57//154 59//154
f 114//155 72//155 57//155
f 115//156 23//156 22//156
f 115//157 76//157 23//157
f 116//158 78//158 77//158
f 117//159 65//159 118//159
f 117//160 118//160 69//160
f 119//63 65//63 24//63
f 119//161 118//161 65//161
f 119//162 24//162 72//162
f 120//163 66//163 96//163
f 120//164 69//164 66//164
f 120//165 117//165 69//165
f 120//166 96//166 73//166
f 121//167 35//167 68//167
f 121//168 68//168 70//168
f 121//169 70//169 62//169
f 122//170 67//170 59//170
f 122//171 59//171 71//171
f 122//172 71//172 70//172
f 122//173 70//173 67//173
f 123//174 73//174 75//174
f 124//175 73//175 96//175
f 124//176 100//176 2//176
f 124//177 96//177 100//177
f 124//178 74//178 73//178
f 124//179 86//179 74//179
f 124//180 2//180 86//180
f 125//181 81//181 80//181
f 125//182 80//182 46//182
f 125//183 46//183 43//183
f 125//184 102//184 81//184
f 125//185 104//185 102//185
f 125//186 43//186 104//186
f 126//187 80//187 27//187
f 126//188 27//188 46//188
f 126//189 46//189 80//189
f 127//190 103//190 26//190
f 127//191 26//191 25//191
f 127//192 25//192 103//192
f 128//193 87//193 74//193
f 128//194 74//194 86//194
f 128//195 86//195 1//195
f 128//196 1//196 7//196
f 128//197 7//197 87//197
f 129//198 87//198 7//198
f 129//199 7//199 45//199
f 129//200 45//200 85//200
f 129//201 85//201 87//201
f 130//202 88//202 89//202
f 130//203 34//203 88//203
f 130//204 89//204 98//204
f 130//205 29//205 34//205
f 131//206 90//206 33//206
f 131//207 12//207 90//207
f 131//208 106//208 12//208
f 132//209 99//209 38//209
f 132//210 38//210 37//210
f 132//211 37//211 97//211
f 133//212 97//212 89//212
f 133//213 89//213 99//213
f 133//214 132//214 97//214
f 133//215 99//215 132//215
f 134//216 100//216 96//216
f 134//217 96//217 95//217
f 134//218 95//218 100//218
f 135//219 101//219 39//219
f 135//220 39//220 18//220
f 135//221 18//221 101//221
f 136//222 103//222 102//222
f 136//223 102//223 104//223
f 137//224 104//224 47//224
f 137//225 47//225 49//225
f 137//226 49//226 108//226
f 137//227 136//227 104//227
f 137//228 108//228 136//228
f 138//229 105//229 13//229
f 138//230 13//230 106//230
f 138//231 112//231 105//231
f 138//232 92//232 112//232
f 139//233 33//233 32//233
f 139//234 131//234 33//234
f 139//235 106//235 131//235
f 139//236 32//236 92//236
f 139//237 138//237 106//237
f 139//238 92//238 138//238
f 140//239 53//239 21//239
f 140//240 21//240 107//240
f 140//241 14//241 53//241
f 141//242 108//242 51//242
f 141//243 51//243 109//243
f 141//244 136//244 108//244
f 141//245 109//245 103//245
f 141//246 103//246 136//246
f 142//247 114//247 59//247
f 142//248 59//248 67//248
f 142//249 72//249 114//249
f 143//250 115//250 144//250
f 143//251 144//251 76//251
f 143//252 76//252 115//252
f 145//253 115//253 22//253
f 145//254 22//254 63//254
f 145//255 116//255 144//255
f 145//256 144//256 115//256
f 145//257 63//257 42//257
f 145//258 42//258 78//258
f 145//259 78//259 116//259
f 146//260 76//260 144//260
f 146//261 144//261 116//261
f 146//262 116//262 77//262
f 146//263 77//263 76//263
f 147//264 69//264 118//264
f 147//265 118//265 119//265
f 147//266 142//266 67//266
f 147//267 67//267 69//267
f 147//268 119//268 72//268
f 147//269 72//269 142//269
f 148//270 65//270 117//270
f 148//271 117//271 120//271
f 148//272 84//272 65//272
f 148//273 120//273 73//273
f 148//274 123//274 84//274
f 148//275 73//275 123//275
f 149//276 36//276 35//276
f 149//277 35//277 121//277
f 149//278 121//278 62//278
f 149//279 62//279 36//279
f 150//280 82//280 84//280
f 150//281 84//281 123//281
f 150//282 123//282 75//282
f 150//283 75//283 82//283
f 151//284 130//284 98//284
f 151//285 98//285 93//285
f 151//286 93//286 29//286
f 151//287 29//287 130//287
f 152//288 140//288 107//288
f 152//289 107//289 110//289
f 152//290 110//290 54//290
f 153//291 111//291 14//291
f 154//292 152//292 54//292
f 154//293 54//293 111//293
f 155//294 153//294 14//294
f 155//295 14//295 140//295
f 155//296 140//296 152//296
f 156//297 152//297 154//297
f 156//298 154//298 111//298
f 156//299 111//299 153//299
f 156//300 155//300 152//300
f 156//301 153//301 155//301
