# Blender 4.0.2
# www.blender.org
mtllib thumb-F1.mtl
o thumb-F1
v 0.025553 -0.011926 -0.016178
v -0.004148 -0.002596 -0.007204
v 0.025655 0.001992 -0.019947
v -0.000167 0.004991 -0.007204
v -0.001181 0.004826 -0.007204
v -0.001181 0.004826 0.007203
v 0.029991 -0.011925 -0.016223
v 0.010610 -0.008930 0.007905
v 0.028934 -0.012021 -0.016578
v 0.031370 -0.011680 -0.015301
v 0.028934 0.001895 -0.020307
v 0.027822 0.001863 -0.020427
v 0.030491 0.002056 -0.019705
v 0.027822 -0.012053 -0.016698
v 0.026711 -0.012020 -0.016576
v -0.002752 -0.004089 -0.007204
v -0.001856 -0.004591 -0.007204
v 0.015331 -0.010017 -0.009098
v 0.009466 -0.008738 -0.006801
v 0.016149 0.007223 -0.000640
v -0.000194 0.004988 0.007216
v 0.011847 0.004951 0.007045
v 0.020793 0.006966 -0.001571
v 0.031746 0.003961 -0.012597
v 0.032339 0.003716 -0.013513
v -0.004862 0.000357 -0.007204
v -0.004684 0.001369 -0.007204
v -0.004746 -0.001191 -0.007208
v -0.002140 0.004458 -0.007204
v -0.003003 0.003901 -0.007204
v -0.004093 0.002730 -0.007204
v 0.026711 0.001896 -0.020305
v -0.003527 -0.003415 0.007203
v -0.004496 -0.001989 0.007203
v 0.032329 -0.011323 -0.013972
v 0.032700 -0.011049 -0.012953
v 0.032828 -0.010762 -0.011879
v 0.011869 -0.008895 0.007264
v 0.032705 -0.010474 -0.010805
v 0.009520 -0.008757 0.007006
v -0.003527 -0.003415 -0.007204
v -0.002283 -0.004434 0.007207
v 0.018209 0.003506 -0.014472
v 0.032339 -0.010200 -0.009784
v 0.031746 -0.009955 -0.008868
v 0.032705 0.003442 -0.014534
v 0.021549 -0.006663 0.001953
v 0.015062 0.002842 0.007432
v 0.021440 0.006470 -0.001446
v -0.004888 -0.000158 0.007203
v 0.031732 0.002349 -0.018615
v 0.032561 0.002726 -0.017207
v 0.013430 0.004483 -0.010820
v 0.032828 0.003154 -0.015608
v 0.014750 0.003770 0.007250
v 0.013832 0.004499 0.007250
v -0.004684 0.001369 0.007203
v -0.004008 0.002857 0.007205
v -0.002140 0.004458 0.007203
v -0.002997 0.003905 0.007209
v 0.012708 -0.008464 0.007250
v 0.013542 -0.007421 0.007245
vn -0.3496 -0.2425 -0.9050
vn -0.1403 0.8620 -0.4872
vn -0.1606 0.9870 -0.0000
vn 0.0376 -0.9875 0.1528
vn 0.0608 -0.9834 0.1709
vn 0.1108 -0.2572 -0.9600
vn 0.3290 -0.2444 -0.9122
vn 0.3715 -0.2369 -0.8977
vn 0.5687 -0.2179 -0.7932
vn -0.0488 -0.9944 0.0934
vn -0.0167 -0.9933 0.1144
vn 0.0140 -0.9907 0.1355
vn -0.3854 -0.6887 -0.6142
vn -0.2491 -0.9633 -0.0998
vn 0.0070 0.9579 0.2872
vn 0.0129 0.9679 -0.2510
vn -0.3875 0.0683 -0.9193
vn -0.3840 -0.0259 -0.9230
vn -0.3673 -0.1595 -0.9163
vn -0.2585 0.6721 -0.6939
vn -0.3235 0.5013 -0.8025
vn -0.3847 0.1666 -0.9079
vn -0.3311 -0.2444 -0.9114
vn -0.1130 -0.2572 -0.9597
vn -0.3327 -0.2441 -0.9109
vn -0.1613 0.9869 -0.0000
vn -0.1355 0.9908 -0.0000
vn -0.8271 -0.5621 0.0037
vn 0.0909 -0.9762 0.1970
vn 0.1357 -0.9609 0.2413
vn 0.1132 -0.9693 0.2184
vn 0.1668 -0.9469 0.2749
vn 0.1647 -0.9479 0.2728
vn -0.1741 -0.9846 0.0142
vn -0.3551 -0.2693 -0.8952
vn -0.3795 -0.4361 -0.8160
vn -0.3439 -0.9390 -0.0000
vn -0.3254 -0.9125 -0.2480
vn -0.1702 -0.9853 0.0169
vn 0.0007 0.9643 -0.2650
vn 0.0018 0.9647 -0.2632
vn -0.0010 0.9635 -0.2676
vn 0.8482 0.1371 0.5116
vn 0.9447 0.0848 0.3167
vn 0.7407 0.1250 0.6601
vn 0.7524 0.1705 0.6363
vn 0.1204 0.9316 0.3429
vn 0.5363 0.7811 0.3198
vn -0.9201 -0.3917 -0.0057
vn -0.3633 0.3388 -0.8679
vn -0.0053 0.9619 -0.2733
vn -0.0052 -0.0034 1.0000
vn -0.0041 -0.0010 1.0000
vn 0.6730 -0.1864 -0.7158
vn 0.0029 0.9655 -0.2604
vn 0.0025 0.9652 -0.2615
vn 0.8691 -0.1246 -0.4787
vn 0.8206 -0.1513 -0.5511
vn 0.9432 -0.0893 -0.3200
vn -0.2132 -0.9770 -0.0005
vn -0.7967 -0.6043 -0.0000
vn -0.0582 0.9390 -0.3390
vn -0.0490 0.9471 -0.3173
vn 0.2099 -0.9229 0.3227
vn 0.2960 -0.8573 0.4211
vn 0.9940 0.0284 0.1058
vn 0.9935 -0.0296 -0.1103
vn 0.9872 -0.0378 -0.1547
vn 0.0068 0.9665 -0.2565
vn 0.6841 0.3555 0.6368
vn 0.5044 0.6348 0.5853
vn 0.7393 0.2400 0.6292
vn -0.9103 0.4139 0.0018
vn -0.9174 0.3980 -0.0000
vn -0.9848 0.1735 -0.0000
vn -0.9912 0.1324 0.0030
vn -0.3590 0.9333 -0.0000
vn -0.5422 0.8403 -0.0000
vn -0.5416 0.8406 -0.0000
vn -0.0100 0.0260 0.9996
vn -0.0210 0.0476 0.9986
vn -0.7200 0.6940 0.0001
vn -0.7318 0.6815 -0.0016
vn -0.0044 -0.0014 1.0000
vn 0.3935 -0.7483 0.5341
vn -0.6337 -0.7736 -0.0000
vn -0.6564 -0.7544 0.0033
vn -0.4883 -0.8726 -0.0050
vn 0.0047 0.9660 -0.2583
vn 0.5048 -0.5693 0.6489
vn 0.4399 0.7127 0.5465
vn 0.0140 0.4637 0.8859
vn 0.0177 -0.0015 0.9998
vn 0.1669 0.9075 0.3855
vn -0.4049 0.0433 0.9133
vn -0.0061 0.0018 1.0000
vn -0.9972 -0.0746 -0.0044
vn -0.9779 -0.2090 0.0054
vn -0.0023 0.0014 1.0000
vn -0.0036 0.0001 1.0000
vn -0.0034 0.0005 1.0000
vn -0.1228 -0.3781 0.9176
vn 0.0034 0.9658 -0.2594
vn 0.0031 0.9657 -0.2596
vn 0.5552 -0.0973 0.8260
vn 0.5280 -0.4189 0.7387
vn 0.0001 -0.0000 1.0000
vn 0.0070 -0.0012 1.0000
vn -0.0029 0.0009 1.0000
vn 0.0426 0.9894 0.1387
vn -0.0309 0.9672 -0.2521
vn 0.0015 0.9658 -0.2593
vn -0.0011 0.9657 -0.2597
s 0
f 1//1 2//1 3//1
f 4//2 3//2 5//2
f 6//3 4//3 5//3
f 7//4 8//4 9//4
f 7//5 10//5 8//5
f 11//6 9//6 12//6
f 11//7 7//7 9//7
f 11//8 13//8 7//8
f 14//6 12//6 9//6
f 13//9 10//9 7//9
f 8//10 1//10 15//10
f 8//11 15//11 14//11
f 8//12 14//12 9//12
f 16//13 1//13 17//13
f 1//14 18//14 19//14
f 20//15 21//15 22//15
f 23//16 24//16 25//16
f 26//17 27//17 3//17
f 26//18 3//18 28//18
f 28//19 3//19 2//19
f 29//20 5//20 3//20
f 29//21 3//21 30//21
f 31//22 3//22 27//22
f 32//23 1//23 3//23
f 32//24 12//24 14//24
f 32//25 15//25 1//25
f 32//24 14//24 15//24
f 21//26 4//26 6//26
f 21//27 20//27 4//27
f 33//28 34//28 2//28
f 10//29 35//29 8//29
f 36//30 37//30 8//30
f 36//31 8//31 35//31
f 38//32 8//32 37//32
f 38//33 37//33 39//33
f 40//34 18//34 1//34
f 41//35 2//35 1//35
f 41//36 1//36 16//36
f 42//37 17//37 19//37
f 19//38 17//38 1//38
f 8//39 40//39 1//39
f 43//40 11//40 12//40
f 43//41 13//41 11//41
f 43//42 12//42 32//42
f 44//43 24//43 45//43
f 44//43 25//43 24//43
f 46//44 44//44 39//44
f 46//44 25//44 44//44
f 47//45 45//45 48//45
f 48//46 45//46 24//46
f 22//47 23//47 20//47
f 49//48 24//48 23//48
f 34//49 28//49 2//49
f 31//50 30//50 3//50
f 43//51 32//51 3//51
f 38//52 34//52 33//52
f 38//53 50//53 34//53
f 51//54 10//54 13//54
f 51//55 43//55 52//55
f 51//56 13//56 43//56
f 51//57 52//57 35//57
f 51//58 35//58 10//58
f 52//59 36//59 35//59
f 19//60 18//60 40//60
f 40//37 42//37 19//37
f 33//61 2//61 41//61
f 43//62 3//62 4//62
f 43//63 4//63 53//63
f 38//64 39//64 44//64
f 38//65 44//65 45//65
f 54//66 46//66 39//66
f 54//66 39//66 37//66
f 54//67 37//67 36//67
f 54//68 36//68 52//68
f 23//69 25//69 46//69
f 55//70 48//70 49//70
f 56//71 55//71 49//71
f 49//72 48//72 24//72
f 57//73 58//73 31//73
f 57//74 31//74 27//74
f 57//75 27//75 26//75
f 57//76 26//76 50//76
f 59//77 6//77 5//77
f 59//77 5//77 29//77
f 59//78 29//78 30//78
f 59//79 30//79 60//79
f 60//80 6//80 59//80
f 60//81 21//81 6//81
f 58//82 60//82 30//82
f 58//83 30//83 31//83
f 38//84 33//84 42//84
f 61//85 38//85 45//85
f 42//86 33//86 41//86
f 42//87 41//87 16//87
f 42//88 16//88 17//88
f 23//89 46//89 54//89
f 47//90 61//90 45//90
f 23//91 56//91 49//91
f 56//92 22//92 21//92
f 56//93 38//93 61//93
f 23//94 22//94 56//94
f 62//95 48//95 55//95
f 60//96 58//96 57//96
f 28//97 50//97 26//97
f 28//98 34//98 50//98
f 21//99 38//99 56//99
f 38//100 60//100 57//100
f 38//101 57//101 50//101
f 40//102 38//102 42//102
f 23//103 54//103 52//103
f 23//104 52//104 43//104
f 62//105 47//105 48//105
f 47//106 62//106 61//106
f 55//107 56//107 61//107
f 55//108 61//108 62//108
f 21//109 60//109 38//109
f 38//110 40//110 8//110
f 20//111 53//111 4//111
f 20//112 23//112 43//112
f 20//113 43//113 53//113
